<svg id="svg" version="1.1" xmlns="http://www.w3.org/2000/svg" xmlns:xlink="http://www.w3.org/1999/xlink" width="240" height="75.14060742407199" viewBox="0, 0, 400,75.14060742407199"><g id="svgg"><path id="path0" d="M99.915 29.083 C 99.915 44.942,99.934 51.404,99.958 43.445 C 99.982 35.486,99.982 22.511,99.958 14.612 C 99.934 6.713,99.915 13.225,99.915 29.083 M12.915 40.917 C 12.915 59.708,12.935 67.371,12.958 57.945 C 12.982 48.519,12.982 33.144,12.958 23.778 C 12.935 14.413,12.915 22.125,12.915 40.917 M135.541 7.083 C 135.516 7.378,135.355 7.997,135.267 8.140 C 135.220 8.216,135.142 8.503,135.093 8.778 C 135.045 9.052,134.717 10.178,134.364 11.279 C 134.011 12.380,133.741 13.406,133.763 13.557 C 133.786 13.709,133.752 13.833,133.688 13.833 C 133.625 13.833,133.558 14.002,133.541 14.208 C 133.523 14.415,133.309 15.221,133.064 16.000 C 132.820 16.779,132.612 17.585,132.602 17.792 C 132.592 17.998,132.535 18.167,132.476 18.167 C 132.417 18.167,132.324 18.283,132.270 18.425 C 132.202 18.601,132.237 18.644,132.377 18.560 C 132.540 18.462,132.540 18.489,132.376 18.692 C 132.263 18.832,132.219 18.997,132.279 19.057 C 132.340 19.117,132.314 19.167,132.222 19.167 C 132.131 19.167,132.070 19.335,132.088 19.542 C 132.106 19.748,132.058 19.998,131.981 20.096 C 131.903 20.195,131.818 20.420,131.790 20.596 C 131.763 20.773,131.687 21.002,131.622 21.106 C 131.557 21.209,131.458 21.584,131.402 21.939 C 131.346 22.293,131.232 22.710,131.150 22.864 C 131.067 23.018,131.000 23.332,131.000 23.560 C 131.000 23.789,130.888 24.088,130.751 24.225 C 130.563 24.413,130.553 24.493,130.710 24.557 C 130.867 24.620,130.864 24.644,130.698 24.654 C 130.579 24.661,130.527 24.742,130.583 24.833 C 130.640 24.925,130.628 25.094,130.556 25.208 C 130.485 25.323,130.399 25.567,130.367 25.750 C 130.258 26.360,130.241 26.415,130.110 26.625 C 130.039 26.740,130.024 26.833,130.078 26.833 C 130.131 26.833,130.060 27.056,129.920 27.328 C 129.779 27.600,129.648 28.012,129.629 28.244 C 129.610 28.477,129.530 28.667,129.452 28.667 C 129.373 28.667,129.331 28.835,129.358 29.042 C 129.385 29.248,129.336 29.529,129.250 29.667 C 129.164 29.804,129.089 30.104,129.083 30.333 C 129.078 30.563,129.029 30.825,128.975 30.917 C 128.852 31.126,128.187 33.295,128.087 33.814 C 128.046 34.026,127.928 34.302,127.825 34.426 C 127.722 34.551,127.678 34.718,127.728 34.798 C 127.777 34.878,127.704 35.312,127.564 35.763 C 127.425 36.214,127.284 36.710,127.250 36.864 C 127.217 37.019,127.110 37.295,127.012 37.478 C 126.914 37.661,126.833 38.037,126.833 38.313 C 126.833 38.588,126.768 38.854,126.688 38.903 C 126.566 38.979,126.384 39.551,126.260 40.250 C 126.244 40.342,126.188 40.529,126.135 40.667 C 126.035 40.926,125.667 42.606,125.667 42.804 C 125.667 42.866,127.879 42.896,130.583 42.870 C 135.194 42.827,135.500 42.805,135.500 42.523 C 135.500 42.358,135.550 42.172,135.612 42.111 C 135.673 42.049,135.751 41.726,135.785 41.393 C 135.820 41.059,135.951 40.638,136.078 40.457 C 136.205 40.276,136.268 40.025,136.220 39.898 C 136.171 39.771,136.188 39.535,136.257 39.375 C 136.379 39.095,136.415 38.950,136.571 38.125 C 136.610 37.919,136.657 37.731,136.675 37.708 C 136.693 37.685,136.727 37.592,136.750 37.500 C 136.773 37.408,136.812 37.277,136.838 37.208 C 136.863 37.140,136.900 37.008,136.919 36.917 C 136.938 36.825,137.047 36.506,137.160 36.208 L 137.366 35.667 142.322 35.667 C 146.167 35.667,147.281 35.713,147.293 35.875 C 147.302 35.990,147.359 36.308,147.420 36.583 C 147.482 36.858,147.556 37.196,147.586 37.333 C 147.617 37.471,147.658 37.621,147.679 37.667 C 147.700 37.712,147.732 37.825,147.750 37.917 C 147.768 38.008,147.838 38.233,147.907 38.417 C 148.228 39.277,148.328 39.614,148.375 40.000 C 148.402 40.229,148.480 40.504,148.547 40.610 C 148.613 40.717,148.684 40.998,148.704 41.235 C 148.723 41.472,148.801 41.667,148.877 41.667 C 148.953 41.667,149.003 41.760,148.989 41.875 C 148.975 41.990,149.018 42.252,149.085 42.458 L 149.206 42.833 154.172 42.833 C 156.904 42.833,159.254 42.877,159.394 42.931 C 159.575 43.001,159.641 42.929,159.622 42.681 C 159.608 42.490,159.537 42.333,159.465 42.333 C 159.392 42.333,159.349 42.277,159.368 42.208 C 159.387 42.140,159.275 41.708,159.119 41.250 C 158.963 40.792,158.820 40.192,158.801 39.917 C 158.783 39.642,158.661 39.248,158.531 39.042 C 158.401 38.835,158.350 38.667,158.418 38.667 C 158.486 38.667,158.446 38.552,158.330 38.413 C 158.214 38.273,158.167 38.111,158.225 38.053 C 158.283 37.995,158.245 37.845,158.141 37.720 C 158.038 37.594,157.998 37.447,158.053 37.392 C 158.108 37.336,158.042 37.076,157.907 36.814 C 157.771 36.552,157.652 36.280,157.643 36.210 C 157.634 36.140,157.554 35.896,157.466 35.667 C 157.378 35.438,157.279 35.063,157.248 34.833 C 157.216 34.604,157.179 34.417,157.165 34.417 C 157.140 34.417,157.010 33.917,156.928 33.500 C 156.901 33.362,156.802 33.063,156.709 32.833 C 156.616 32.604,156.572 32.360,156.613 32.292 C 156.653 32.223,156.602 32.167,156.500 32.167 C 156.398 32.167,156.362 32.088,156.421 31.993 C 156.480 31.897,156.458 31.728,156.371 31.618 C 156.154 31.342,155.870 30.286,155.790 29.458 C 155.775 29.298,155.711 29.167,155.649 29.167 C 155.587 29.167,155.499 28.923,155.454 28.625 C 155.334 27.847,155.241 27.525,154.852 26.542 C 154.661 26.060,154.537 25.667,154.577 25.667 C 154.617 25.667,154.542 25.408,154.410 25.093 C 154.278 24.777,154.219 24.390,154.280 24.232 C 154.355 24.037,154.327 23.984,154.195 24.066 C 154.019 24.175,153.903 23.731,153.987 23.271 C 154.002 23.191,153.898 22.997,153.757 22.841 C 153.615 22.684,153.537 22.519,153.583 22.473 C 153.629 22.426,153.509 21.908,153.316 21.320 C 152.942 20.182,152.815 19.710,152.792 19.375 C 152.784 19.260,152.707 19.167,152.621 19.167 C 152.534 19.167,152.505 18.998,152.555 18.792 C 152.606 18.585,152.541 18.274,152.412 18.100 C 152.283 17.927,152.217 17.720,152.265 17.642 C 152.313 17.564,152.290 17.500,152.213 17.500 C 152.136 17.500,152.057 17.294,152.037 17.042 C 152.004 16.622,151.943 16.409,151.574 15.417 C 151.403 14.959,151.328 14.646,151.286 14.224 C 151.266 14.027,151.181 13.908,151.097 13.960 C 151.012 14.012,150.990 13.932,151.048 13.783 C 151.105 13.633,151.084 13.468,151.000 13.417 C 150.916 13.365,150.890 13.213,150.942 13.078 C 150.993 12.943,150.965 12.833,150.879 12.833 C 150.793 12.833,150.712 12.740,150.700 12.625 C 150.618 11.853,150.480 11.256,150.366 11.176 C 150.232 11.083,149.870 9.786,149.759 9.000 C 149.726 8.771,149.683 8.546,149.663 8.500 C 149.644 8.454,149.637 8.358,149.648 8.287 C 149.660 8.216,149.561 8.116,149.429 8.065 C 149.296 8.014,149.227 7.871,149.274 7.746 C 149.558 7.007,149.454 6.995,142.311 6.955 C 137.900 6.930,135.551 6.975,135.541 7.083 M222.126 6.960 L 216.170 7.004 216.126 24.960 L 216.083 42.917 220.731 42.917 L 225.379 42.917 225.279 31.750 C 225.224 25.608,225.135 20.140,225.081 19.598 C 224.995 18.723,225.012 18.636,225.240 18.825 C 225.381 18.942,225.455 19.104,225.405 19.186 C 225.355 19.267,225.386 19.333,225.475 19.333 C 225.564 19.333,225.620 19.448,225.600 19.589 C 225.579 19.729,225.766 20.267,226.016 20.783 C 226.266 21.300,226.443 21.862,226.410 22.032 C 226.378 22.203,226.422 22.298,226.509 22.245 C 226.644 22.161,226.750 22.639,226.686 23.042 C 226.676 23.110,226.754 23.167,226.861 23.167 C 226.968 23.167,227.005 23.217,226.944 23.278 C 226.883 23.339,226.964 23.535,227.125 23.712 C 227.285 23.890,227.400 24.064,227.380 24.099 C 227.360 24.134,227.491 24.507,227.672 24.928 C 227.852 25.350,228.000 25.755,228.000 25.828 C 228.000 25.902,228.109 26.171,228.241 26.427 C 228.374 26.683,228.445 26.954,228.398 27.030 C 228.352 27.105,228.391 27.167,228.485 27.167 C 228.579 27.167,228.613 27.279,228.560 27.417 C 228.508 27.554,228.552 27.667,228.659 27.667 C 228.766 27.667,228.810 27.736,228.757 27.822 C 228.704 27.907,228.735 28.023,228.826 28.079 C 228.917 28.135,229.076 28.496,229.179 28.882 C 229.283 29.268,229.439 29.628,229.526 29.682 C 229.613 29.736,229.706 29.961,229.732 30.182 C 229.759 30.403,229.905 30.874,230.057 31.229 C 230.209 31.584,230.333 31.940,230.333 32.020 C 230.333 32.101,230.393 32.167,230.467 32.167 C 230.619 32.167,231.035 33.215,231.127 33.830 C 231.161 34.058,231.252 34.283,231.329 34.331 C 231.406 34.379,231.595 34.755,231.748 35.167 C 231.902 35.579,232.133 36.116,232.263 36.359 C 232.394 36.602,232.500 36.959,232.500 37.151 C 232.500 37.343,232.575 37.500,232.667 37.500 C 232.758 37.500,232.821 37.556,232.806 37.625 C 232.791 37.694,232.950 38.125,233.159 38.583 C 233.368 39.042,233.741 39.979,233.988 40.667 C 234.235 41.354,234.556 42.142,234.701 42.417 L 234.965 42.917 240.816 42.871 L 246.667 42.825 246.667 24.918 L 246.667 7.010 242.083 6.963 L 237.500 6.917 237.489 12.167 C 237.468 22.130,237.519 25.271,237.756 28.583 C 237.856 29.976,237.767 30.653,237.596 29.807 C 237.572 29.684,237.472 29.396,237.376 29.167 C 236.776 27.741,236.520 27.000,236.627 26.997 C 236.695 26.996,236.664 26.940,236.560 26.872 C 236.359 26.743,235.147 23.787,235.094 23.298 C 235.077 23.141,234.929 22.864,234.765 22.683 C 234.601 22.502,234.513 22.280,234.570 22.189 C 234.626 22.098,234.595 21.975,234.500 21.917 C 234.405 21.858,234.371 21.740,234.424 21.655 C 234.477 21.570,234.428 21.500,234.315 21.500 C 234.203 21.500,234.160 21.451,234.219 21.392 C 234.278 21.333,234.185 21.014,234.012 20.684 C 233.681 20.056,233.467 19.532,233.423 19.250 C 233.378 18.957,233.112 18.420,232.962 18.318 C 232.882 18.264,232.804 18.058,232.790 17.860 C 232.775 17.662,232.711 17.500,232.649 17.500 C 232.587 17.500,232.493 17.327,232.440 17.115 C 232.386 16.904,232.214 16.435,232.057 16.074 C 231.899 15.712,231.766 15.367,231.760 15.306 C 231.755 15.244,231.694 15.138,231.625 15.069 C 231.556 15.001,231.500 14.807,231.500 14.639 C 231.500 14.471,231.417 14.333,231.316 14.333 C 231.214 14.333,231.173 14.223,231.225 14.089 C 231.277 13.954,231.242 13.797,231.149 13.739 C 230.993 13.643,230.680 12.982,230.600 12.583 C 230.582 12.492,230.480 12.258,230.373 12.064 C 230.266 11.869,230.226 11.663,230.284 11.605 C 230.342 11.547,230.297 11.500,230.185 11.500 C 230.072 11.500,230.023 11.432,230.074 11.348 C 230.126 11.265,230.060 10.983,229.927 10.723 C 229.266 9.426,228.992 8.786,229.068 8.710 C 229.113 8.664,229.038 8.514,228.899 8.375 C 228.761 8.237,228.688 8.018,228.738 7.889 C 228.787 7.760,228.712 7.610,228.571 7.556 C 228.430 7.501,228.351 7.360,228.397 7.242 C 228.522 6.915,228.489 6.914,222.126 6.960 M298.166 20.000 C 298.167 27.196,298.104 33.346,298.026 33.667 C 297.854 34.373,297.264 35.375,297.111 35.222 C 297.050 35.161,297.000 35.200,297.000 35.310 C 297.000 35.560,296.280 35.839,295.563 35.866 C 295.261 35.878,295.049 35.945,295.093 36.016 C 295.137 36.087,294.965 36.092,294.712 36.026 C 294.458 35.961,293.707 35.910,293.042 35.912 C 292.378 35.915,291.803 35.842,291.764 35.750 C 291.725 35.658,291.687 37.290,291.680 39.375 C 291.668 42.873,291.689 43.168,291.958 43.186 C 292.119 43.196,292.475 43.245,292.750 43.293 C 293.025 43.342,294.787 43.390,296.667 43.399 C 299.924 43.416,300.391 43.367,301.667 42.879 C 301.804 42.826,302.061 42.756,302.237 42.722 C 302.413 42.688,302.640 42.591,302.742 42.507 C 302.844 42.422,303.140 42.314,303.401 42.267 C 303.661 42.220,304.031 42.047,304.222 41.882 C 304.413 41.718,304.648 41.526,304.743 41.456 C 305.132 41.170,305.844 40.500,305.760 40.500 C 305.683 40.500,306.458 39.384,306.992 38.726 C 307.077 38.621,307.112 38.501,307.070 38.459 C 307.028 38.417,307.107 38.166,307.246 37.900 C 307.385 37.634,307.498 37.248,307.499 37.042 C 307.500 36.835,307.563 36.667,307.639 36.667 C 307.715 36.667,307.789 36.573,307.803 36.458 C 307.817 36.344,307.851 36.063,307.878 35.833 C 307.905 35.604,307.962 35.342,308.006 35.250 C 308.050 35.158,308.085 34.652,308.084 34.125 C 308.084 33.598,308.136 33.167,308.201 33.167 C 308.266 33.167,308.324 27.260,308.329 20.042 L 308.340 6.917 303.253 6.917 L 298.165 6.917 298.166 20.000 M320.591 6.980 C 320.626 7.015,320.572 7.198,320.472 7.386 C 320.371 7.575,320.253 7.996,320.209 8.323 C 320.165 8.649,320.069 8.955,319.994 9.002 C 319.884 9.071,319.746 9.819,319.677 10.718 C 319.671 10.792,319.592 10.807,319.500 10.750 C 319.328 10.644,319.318 10.681,319.242 11.667 C 319.218 11.987,319.044 12.653,318.855 13.146 C 318.667 13.639,318.480 14.253,318.440 14.511 C 318.399 14.769,318.304 15.078,318.229 15.198 C 318.154 15.318,318.077 15.567,318.056 15.750 C 317.999 16.270,317.919 16.565,317.770 16.803 C 317.695 16.923,317.676 17.065,317.727 17.116 C 317.779 17.168,317.743 17.357,317.647 17.537 C 317.551 17.716,317.437 18.062,317.394 18.306 C 317.350 18.550,317.201 19.087,317.061 19.500 C 316.922 19.912,316.798 20.400,316.787 20.583 C 316.775 20.767,316.701 20.962,316.622 21.017 C 316.543 21.072,316.452 21.372,316.420 21.683 C 316.388 21.995,316.350 22.250,316.335 22.250 C 316.321 22.250,316.271 22.438,316.225 22.667 C 316.106 23.257,316.075 23.359,315.859 23.886 C 315.753 24.144,315.667 24.465,315.667 24.600 C 315.667 24.735,315.535 25.046,315.375 25.291 C 315.215 25.536,315.177 25.679,315.292 25.609 C 315.569 25.438,315.547 25.673,315.250 26.066 C 315.118 26.240,315.050 26.446,315.099 26.525 C 315.147 26.603,315.109 26.667,315.015 26.667 C 314.921 26.667,314.887 26.780,314.941 26.919 C 314.994 27.057,314.955 27.271,314.853 27.392 C 314.752 27.514,314.714 27.658,314.768 27.713 C 314.822 27.767,314.805 27.910,314.729 28.031 C 314.654 28.151,314.586 28.325,314.579 28.417 C 314.571 28.508,314.473 28.802,314.359 29.070 C 314.246 29.337,314.129 29.750,314.098 29.986 C 314.068 30.223,313.964 30.604,313.866 30.833 C 313.636 31.378,313.437 32.199,313.477 32.446 C 313.495 32.553,313.432 32.689,313.338 32.747 C 313.244 32.805,313.167 33.050,313.167 33.290 C 313.167 33.656,312.698 35.428,312.362 36.333 C 312.311 36.471,312.256 36.658,312.240 36.750 C 312.105 37.508,311.933 38.000,311.803 38.000 C 311.717 38.000,311.692 38.073,311.748 38.163 C 311.803 38.252,311.754 38.646,311.639 39.038 C 311.524 39.430,311.424 39.825,311.416 39.917 C 311.408 40.008,311.321 40.233,311.224 40.417 C 311.071 40.704,310.891 41.292,310.830 41.705 C 310.820 41.772,310.747 42.054,310.668 42.330 L 310.523 42.833 315.345 42.833 C 320.819 42.833,320.430 42.847,320.375 42.650 C 320.352 42.567,320.408 42.500,320.500 42.500 C 320.592 42.500,320.667 42.421,320.667 42.323 C 320.667 42.226,320.573 42.203,320.458 42.272 C 320.301 42.366,320.294 42.338,320.429 42.157 C 320.609 41.916,321.009 40.709,321.213 39.792 C 321.239 39.677,321.318 39.490,321.390 39.375 C 321.469 39.248,321.434 39.166,321.302 39.164 C 321.153 39.162,321.142 39.122,321.266 39.039 C 321.437 38.925,321.493 38.680,321.512 37.955 C 321.517 37.782,321.597 37.707,321.705 37.774 C 321.820 37.845,321.854 37.795,321.796 37.643 C 321.744 37.508,321.796 37.027,321.911 36.574 L 322.120 35.750 327.106 35.706 L 332.092 35.662 332.313 36.206 C 332.435 36.505,332.565 36.938,332.602 37.167 C 332.695 37.741,332.801 38.242,332.841 38.292 C 332.898 38.362,332.944 38.555,333.079 39.289 C 333.150 39.677,333.261 39.961,333.326 39.921 C 333.390 39.881,333.429 40.014,333.411 40.216 C 333.393 40.418,333.442 40.664,333.519 40.763 C 333.597 40.862,333.686 41.087,333.719 41.263 C 333.751 41.439,333.863 41.883,333.967 42.250 L 334.157 42.917 339.395 42.917 C 344.008 42.917,344.618 42.887,344.500 42.666 C 344.426 42.528,344.283 41.970,344.182 41.426 C 344.082 40.881,343.943 40.394,343.875 40.343 C 343.753 40.252,343.704 40.104,343.570 39.417 C 343.534 39.233,343.432 38.896,343.343 38.667 C 343.118 38.084,342.687 36.401,342.584 35.700 C 342.553 35.490,342.432 35.203,342.316 35.062 C 342.199 34.922,342.094 34.582,342.081 34.306 C 342.068 34.031,341.951 33.738,341.820 33.655 C 341.690 33.573,341.636 33.504,341.701 33.503 C 341.766 33.501,341.715 33.207,341.589 32.848 C 341.462 32.490,341.401 32.154,341.453 32.102 C 341.505 32.051,341.462 31.906,341.359 31.780 C 341.255 31.655,341.217 31.505,341.275 31.447 C 341.333 31.389,341.276 31.216,341.149 31.062 C 341.021 30.908,340.935 30.756,340.958 30.724 C 340.981 30.693,340.994 30.648,340.987 30.625 C 340.980 30.602,340.946 30.471,340.910 30.333 C 340.804 29.916,340.490 28.761,340.436 28.583 C 340.408 28.492,340.298 28.206,340.192 27.947 C 340.087 27.689,340.000 27.311,340.000 27.106 C 340.000 26.901,339.927 26.660,339.837 26.570 C 339.747 26.481,339.638 26.126,339.594 25.783 C 339.550 25.439,339.457 25.066,339.387 24.954 C 339.317 24.842,339.242 24.675,339.221 24.583 C 339.201 24.492,339.065 24.090,338.920 23.690 C 338.775 23.291,338.629 22.766,338.596 22.524 C 338.562 22.282,338.418 21.765,338.275 21.375 C 338.132 20.985,338.046 20.667,338.083 20.667 C 338.121 20.667,338.046 20.367,337.917 20.000 C 337.787 19.633,337.725 19.333,337.778 19.333 C 337.831 19.333,337.791 19.234,337.690 19.112 C 337.589 18.990,337.479 18.746,337.445 18.570 C 337.412 18.394,337.290 18.025,337.174 17.750 C 337.058 17.475,336.945 17.025,336.922 16.750 C 336.884 16.295,336.834 16.109,336.540 15.333 C 336.488 15.196,336.430 15.027,336.410 14.958 C 336.391 14.890,336.356 14.796,336.333 14.750 C 336.310 14.704,336.277 14.610,336.259 14.542 C 336.241 14.473,336.128 14.079,336.007 13.667 C 335.886 13.254,335.785 12.823,335.783 12.708 C 335.780 12.594,335.728 12.500,335.667 12.500 C 335.606 12.500,335.544 12.406,335.529 12.292 C 335.476 11.868,335.360 11.249,335.326 11.208 C 335.307 11.185,335.273 11.092,335.250 11.000 C 335.227 10.908,335.190 10.777,335.168 10.708 C 335.145 10.640,335.136 10.527,335.147 10.458 C 335.158 10.390,335.073 10.332,334.958 10.331 C 334.796 10.329,334.797 10.299,334.963 10.193 C 335.130 10.087,335.111 9.970,334.872 9.654 C 334.704 9.432,334.574 9.137,334.583 9.000 C 334.591 8.862,334.500 8.507,334.380 8.209 C 334.261 7.912,334.164 7.630,334.165 7.584 C 334.178 6.989,334.392 7.009,327.347 6.962 C 323.596 6.937,320.556 6.945,320.591 6.980 M354.650 6.958 L 349.717 7.005 349.609 8.877 C 349.493 10.903,349.455 42.733,349.569 42.847 C 349.607 42.885,351.857 42.896,354.569 42.870 L 359.500 42.824 359.500 35.495 L 359.500 28.167 364.503 28.167 L 369.507 28.167 369.496 35.542 C 369.491 39.598,369.527 42.898,369.577 42.875 C 369.626 42.852,371.921 42.833,374.677 42.833 C 377.563 42.833,379.647 42.770,379.595 42.685 C 379.544 42.603,379.501 34.522,379.499 24.727 L 379.494 6.917 374.490 6.953 L 369.485 6.990 369.496 13.662 L 369.507 20.333 364.498 20.333 L 359.489 20.333 359.536 13.583 C 359.562 9.871,359.583 6.851,359.583 6.872 C 359.583 6.894,357.363 6.933,354.650 6.958 M263.686 7.542 C 263.590 7.840,263.477 8.271,263.434 8.500 C 263.391 8.729,263.236 9.310,263.089 9.790 C 262.942 10.270,262.818 10.720,262.813 10.790 C 262.809 10.860,262.728 11.009,262.634 11.123 C 262.540 11.236,262.506 11.443,262.559 11.581 C 262.613 11.720,262.579 11.833,262.485 11.833 C 262.391 11.833,262.355 11.900,262.405 11.981 C 262.485 12.111,262.337 12.730,262.041 13.500 C 261.902 13.864,261.902 13.861,261.760 14.542 C 261.688 14.885,261.558 15.167,261.472 15.167 C 261.385 15.167,261.362 15.245,261.421 15.341 C 261.480 15.436,261.461 15.605,261.377 15.716 C 261.294 15.826,261.216 16.097,261.205 16.318 C 261.193 16.539,261.122 16.764,261.046 16.818 C 260.971 16.872,260.885 17.178,260.855 17.497 C 260.825 17.816,260.665 18.510,260.501 19.038 C 260.336 19.567,260.250 20.001,260.309 20.003 C 260.368 20.004,260.316 20.069,260.192 20.147 C 260.069 20.226,259.956 20.487,259.942 20.728 C 259.928 20.969,259.852 21.166,259.774 21.167 C 259.695 21.167,259.673 21.277,259.725 21.411 C 259.777 21.546,259.746 21.701,259.657 21.756 C 259.568 21.811,259.533 21.919,259.580 21.995 C 259.627 22.071,259.507 22.647,259.313 23.275 C 259.118 23.903,258.946 24.492,258.930 24.583 C 258.914 24.675,258.823 24.900,258.729 25.083 C 258.635 25.267,258.542 25.679,258.524 26.000 C 258.505 26.321,258.417 26.608,258.328 26.639 C 258.239 26.669,258.167 26.913,258.167 27.181 C 258.167 27.448,258.084 27.667,257.982 27.667 C 257.881 27.667,257.840 27.777,257.892 27.912 C 257.943 28.046,257.850 28.552,257.684 29.037 C 257.372 29.950,257.090 31.158,257.139 31.375 C 257.154 31.444,257.096 31.500,257.010 31.500 C 256.923 31.500,256.880 31.645,256.915 31.823 C 256.949 32.000,256.868 32.236,256.735 32.346 C 256.598 32.460,256.535 32.682,256.591 32.857 C 256.650 33.045,256.608 33.167,256.483 33.167 C 256.370 33.167,256.321 33.210,256.375 33.263 C 256.485 33.374,255.974 35.325,255.494 36.626 C 255.316 37.107,255.176 37.540,255.181 37.587 C 255.187 37.634,255.147 37.877,255.093 38.128 C 255.039 38.378,254.964 38.733,254.927 38.917 C 254.890 39.100,254.713 39.715,254.533 40.284 C 254.353 40.852,254.248 41.359,254.298 41.409 C 254.348 41.459,254.310 41.500,254.213 41.500 C 253.989 41.500,253.801 42.222,253.935 42.570 C 254.023 42.801,254.613 42.833,258.812 42.833 L 263.588 42.833 263.923 41.763 C 264.107 41.175,264.181 40.739,264.087 40.795 C 263.993 40.851,264.006 40.787,264.114 40.653 C 264.223 40.518,264.348 40.185,264.392 39.913 C 264.436 39.640,264.484 39.417,264.499 39.417 C 264.531 39.417,264.612 39.094,264.749 38.433 C 264.804 38.166,264.918 37.820,265.002 37.663 C 265.086 37.506,265.123 37.346,265.085 37.307 C 265.046 37.268,265.113 36.902,265.234 36.493 L 265.453 35.750 270.456 35.706 L 275.458 35.662 275.633 36.351 C 275.729 36.729,275.763 37.155,275.709 37.297 C 275.638 37.481,275.674 37.515,275.833 37.417 C 275.996 37.316,276.028 37.353,275.952 37.551 C 275.895 37.700,275.926 37.871,276.022 37.930 C 276.117 37.989,276.159 38.179,276.113 38.352 C 276.066 38.534,276.101 38.624,276.196 38.565 C 276.286 38.509,276.343 38.603,276.321 38.773 C 276.300 38.944,276.325 39.196,276.377 39.333 C 276.678 40.122,277.167 41.946,277.167 42.278 C 277.167 42.492,277.246 42.667,277.343 42.667 C 277.440 42.667,277.485 42.723,277.442 42.792 C 277.400 42.860,279.717 42.917,282.592 42.917 L 287.819 42.917 287.718 42.500 C 287.663 42.271,287.565 41.933,287.500 41.750 C 287.434 41.567,287.418 41.312,287.462 41.185 C 287.509 41.051,287.469 41.000,287.366 41.063 C 287.254 41.132,287.194 40.981,287.204 40.654 C 287.212 40.368,287.150 40.086,287.067 40.026 C 286.910 39.912,286.821 39.649,286.748 39.083 C 286.677 38.532,286.286 37.264,286.119 37.044 C 286.033 36.930,286.008 36.720,286.063 36.577 C 286.120 36.427,286.093 36.359,285.998 36.418 C 285.907 36.474,285.824 36.365,285.813 36.177 C 285.793 35.848,285.756 35.648,285.668 35.375 C 285.645 35.306,285.636 35.194,285.647 35.125 C 285.658 35.056,285.573 34.999,285.458 34.997 C 285.305 34.996,285.301 34.962,285.443 34.872 C 285.584 34.782,285.554 34.580,285.333 34.124 C 285.166 33.781,285.053 33.500,285.082 33.500 C 285.111 33.500,284.992 33.125,284.818 32.667 C 284.644 32.208,284.554 31.833,284.617 31.833 C 284.681 31.833,284.643 31.743,284.533 31.633 C 284.293 31.393,284.266 31.105,284.498 31.249 C 284.588 31.304,284.516 31.009,284.337 30.592 C 284.158 30.175,284.049 29.833,284.094 29.833 C 284.138 29.833,284.058 29.606,283.914 29.328 C 283.771 29.051,283.694 28.757,283.744 28.676 C 283.794 28.595,283.778 28.503,283.709 28.473 C 283.506 28.383,282.814 25.832,282.939 25.631 C 283.011 25.514,282.974 25.497,282.833 25.584 C 282.670 25.684,282.638 25.627,282.708 25.359 C 282.769 25.126,282.739 25.039,282.623 25.110 C 282.509 25.181,282.482 25.119,282.550 24.944 C 282.608 24.791,282.586 24.667,282.500 24.667 C 282.414 24.667,282.387 24.553,282.441 24.415 C 282.494 24.276,282.458 24.067,282.362 23.951 C 282.265 23.835,282.151 23.554,282.109 23.328 C 282.066 23.102,281.910 22.565,281.762 22.135 C 281.614 21.705,281.511 21.292,281.532 21.218 C 281.553 21.144,281.474 20.909,281.356 20.695 C 281.238 20.482,281.183 20.197,281.235 20.062 C 281.288 19.924,281.257 19.861,281.165 19.918 C 281.010 20.013,280.926 19.679,280.988 19.208 C 281.002 19.094,280.933 19.000,280.833 19.000 C 280.734 19.000,280.667 18.906,280.686 18.792 C 280.704 18.677,280.678 18.471,280.629 18.333 C 280.381 17.649,280.014 16.250,279.962 15.792 C 279.944 15.631,279.866 15.500,279.788 15.500 C 279.710 15.500,279.694 15.424,279.751 15.331 C 279.809 15.238,279.751 14.952,279.622 14.694 C 279.494 14.437,279.407 14.100,279.429 13.946 C 279.452 13.792,279.409 13.667,279.333 13.667 C 279.258 13.667,279.143 13.348,279.078 12.958 C 279.014 12.569,278.855 12.045,278.727 11.793 C 278.598 11.542,278.501 11.317,278.510 11.293 C 278.558 11.170,278.265 10.222,278.123 10.042 C 278.009 9.897,278.029 9.833,278.188 9.831 C 278.345 9.829,278.358 9.790,278.229 9.706 C 278.126 9.638,277.986 9.321,277.918 9.000 C 277.850 8.679,277.721 8.325,277.632 8.214 C 277.542 8.102,277.503 7.915,277.545 7.797 C 277.828 7.006,277.772 7.000,270.590 7.000 L 263.859 7.000 263.686 7.542 M142.428 15.409 C 142.476 15.863,142.577 16.313,142.652 16.409 C 142.727 16.505,142.794 16.696,142.801 16.833 C 142.808 16.971,143.007 17.908,143.245 18.917 C 143.793 21.250,143.884 21.683,143.895 22.042 C 143.901 22.202,143.972 22.333,144.055 22.333 C 144.138 22.333,144.168 22.478,144.121 22.656 C 144.075 22.833,144.134 23.117,144.252 23.286 C 144.371 23.455,144.514 23.881,144.569 24.233 C 144.625 24.585,144.719 24.950,144.778 25.045 C 144.837 25.140,144.905 25.375,144.930 25.567 C 144.955 25.759,145.090 26.286,145.230 26.737 C 145.582 27.871,145.692 27.833,141.986 27.833 L 138.658 27.833 138.906 27.354 C 139.042 27.091,139.106 26.829,139.049 26.771 C 138.991 26.714,139.016 26.667,139.103 26.667 C 139.191 26.667,139.274 26.371,139.289 26.010 C 139.303 25.648,139.428 25.134,139.566 24.867 C 139.704 24.600,139.835 24.071,139.858 23.691 C 139.880 23.311,139.967 23.000,140.050 23.000 C 140.134 23.000,140.160 22.890,140.108 22.755 C 140.057 22.621,140.088 22.466,140.177 22.410 C 140.266 22.355,140.294 22.237,140.238 22.148 C 140.183 22.059,140.226 21.879,140.333 21.750 C 140.441 21.621,140.480 21.436,140.421 21.341 C 140.362 21.245,140.388 21.167,140.479 21.167 C 140.570 21.167,140.611 20.979,140.569 20.750 C 140.527 20.521,140.555 20.333,140.629 20.333 C 140.704 20.333,140.784 20.056,140.807 19.716 C 140.830 19.377,140.919 19.014,141.006 18.909 C 141.093 18.805,141.127 18.682,141.082 18.637 C 141.036 18.592,141.096 18.224,141.214 17.819 C 141.332 17.414,141.424 16.971,141.417 16.833 C 141.411 16.696,141.471 16.537,141.552 16.481 C 141.632 16.424,141.719 16.124,141.744 15.814 C 141.770 15.504,141.843 15.126,141.907 14.975 C 141.970 14.825,142.009 14.600,141.991 14.475 C 141.974 14.351,141.976 14.100,141.995 13.917 C 142.044 13.430,142.319 14.374,142.428 15.409 M327.220 14.315 C 327.175 14.488,327.213 14.675,327.304 14.732 C 327.396 14.789,327.435 15.060,327.392 15.334 C 327.349 15.609,327.388 15.833,327.480 15.833 C 327.571 15.833,327.640 15.965,327.633 16.125 C 327.626 16.285,327.779 17.054,327.973 17.833 C 328.167 18.612,328.368 19.504,328.419 19.815 C 328.471 20.125,328.591 20.525,328.686 20.703 C 328.781 20.881,328.818 21.133,328.768 21.264 C 328.717 21.396,328.754 21.708,328.850 21.960 C 328.945 22.211,329.029 22.454,329.035 22.500 C 329.041 22.546,329.184 22.983,329.352 23.472 C 329.520 23.960,329.644 24.410,329.628 24.472 C 329.612 24.533,329.694 24.863,329.811 25.205 C 329.928 25.547,329.971 25.912,329.907 26.015 C 329.843 26.119,329.866 26.252,329.958 26.310 C 330.050 26.369,330.179 26.735,330.244 27.125 L 330.363 27.833 327.092 27.833 L 323.822 27.833 323.897 27.375 C 323.939 27.123,323.988 26.898,324.007 26.875 C 324.026 26.852,324.052 26.777,324.065 26.708 C 324.078 26.640,324.155 26.478,324.237 26.349 C 324.347 26.175,324.325 26.150,324.151 26.253 C 323.987 26.349,323.997 26.295,324.185 26.070 C 324.519 25.671,324.694 25.000,324.464 25.000 C 324.362 25.000,324.377 24.898,324.500 24.750 C 324.614 24.613,324.652 24.500,324.583 24.500 C 324.515 24.500,324.553 24.387,324.667 24.250 C 324.781 24.113,324.818 24.000,324.750 24.000 C 324.682 24.000,324.709 23.899,324.811 23.776 C 324.914 23.653,324.948 23.503,324.887 23.443 C 324.827 23.383,324.861 23.333,324.963 23.333 C 325.064 23.333,325.121 23.198,325.090 23.033 C 325.058 22.868,325.142 22.324,325.277 21.825 C 325.412 21.325,325.549 20.804,325.582 20.667 C 325.615 20.529,325.653 20.417,325.667 20.417 C 325.682 20.417,325.718 20.229,325.748 20.000 C 325.855 19.186,326.035 18.413,326.183 18.137 C 326.265 17.983,326.282 17.727,326.221 17.568 C 326.142 17.363,326.170 17.316,326.318 17.407 C 326.469 17.501,326.513 17.406,326.477 17.060 C 326.400 16.303,326.974 14.000,327.240 14.000 C 327.274 14.000,327.265 14.142,327.220 14.315 M270.500 14.678 C 270.500 14.959,270.567 15.315,270.650 15.469 C 270.732 15.624,270.847 16.045,270.904 16.407 C 270.961 16.768,271.120 17.392,271.256 17.794 C 271.393 18.196,271.459 18.597,271.405 18.686 C 271.350 18.775,271.395 18.957,271.506 19.091 C 271.617 19.224,271.663 19.333,271.608 19.333 C 271.553 19.333,271.580 19.523,271.668 19.754 C 271.756 19.986,271.859 20.342,271.896 20.546 C 271.934 20.750,272.083 21.329,272.227 21.833 C 272.371 22.337,272.525 22.938,272.570 23.167 C 272.615 23.396,272.700 23.808,272.758 24.083 C 272.817 24.358,272.881 24.675,272.900 24.787 C 272.919 24.899,272.982 25.037,273.039 25.095 C 273.097 25.152,273.103 25.304,273.054 25.433 C 273.005 25.561,273.036 25.667,273.123 25.667 C 273.211 25.667,273.289 25.881,273.296 26.144 C 273.304 26.406,273.428 26.903,273.572 27.247 C 273.716 27.592,273.833 27.884,273.833 27.895 C 273.834 27.907,272.299 27.895,270.423 27.868 L 267.013 27.820 267.163 27.427 C 267.245 27.211,267.269 26.991,267.217 26.939 C 267.164 26.887,267.246 26.654,267.398 26.422 C 267.550 26.190,267.632 26.000,267.581 26.000 C 267.530 26.000,267.573 25.841,267.677 25.647 C 267.822 25.377,267.820 25.322,267.670 25.415 C 267.542 25.494,267.557 25.369,267.713 25.060 C 267.846 24.798,267.921 24.490,267.880 24.375 C 267.839 24.260,267.882 24.167,267.975 24.167 C 268.068 24.167,268.144 23.960,268.144 23.708 C 268.143 23.151,268.258 22.624,268.466 22.219 C 268.552 22.053,268.587 21.820,268.545 21.703 C 268.503 21.585,268.547 21.394,268.642 21.279 C 268.738 21.164,268.866 20.810,268.927 20.493 C 268.988 20.176,269.067 19.767,269.104 19.583 C 269.140 19.400,269.212 18.987,269.264 18.667 C 269.316 18.346,269.400 17.971,269.452 17.833 C 269.504 17.696,269.564 17.471,269.585 17.333 C 269.607 17.196,269.671 16.896,269.727 16.667 C 270.018 15.476,270.163 14.564,270.091 14.377 C 270.047 14.261,270.121 14.167,270.255 14.167 C 270.417 14.167,270.500 14.339,270.500 14.678 M181.286 14.770 C 181.261 14.794,180.630 14.834,179.882 14.858 C 179.135 14.883,178.555 14.954,178.593 15.016 C 178.632 15.079,178.404 15.179,178.086 15.239 C 177.512 15.346,176.723 15.668,176.083 16.055 C 174.882 16.782,174.333 17.198,174.333 17.382 C 174.333 17.498,174.190 17.716,174.014 17.866 C 173.709 18.127,173.695 18.116,173.700 17.611 C 173.702 17.321,173.685 17.008,173.661 16.917 C 173.638 16.825,173.610 16.430,173.601 16.038 L 173.583 15.326 168.708 15.288 C 166.027 15.267,163.833 15.306,163.833 15.375 C 163.833 15.444,163.918 15.500,164.020 15.500 C 164.158 15.500,164.158 15.559,164.022 15.724 C 163.920 15.847,163.875 15.986,163.922 16.033 C 163.969 16.080,164.005 22.175,164.002 29.578 C 163.997 41.823,164.020 43.028,164.262 42.935 C 164.408 42.879,166.584 42.833,169.097 42.833 L 173.667 42.833 173.668 35.042 C 173.669 27.084,173.783 24.902,174.245 24.009 C 174.389 23.731,174.504 23.464,174.500 23.415 C 174.492 23.313,174.951 22.842,175.378 22.514 C 176.308 21.800,178.363 22.027,179.158 22.932 C 179.919 23.799,179.917 23.761,179.917 33.667 L 179.917 42.917 184.880 42.917 L 189.842 42.917 189.828 32.922 C 189.818 25.449,189.764 22.866,189.615 22.682 C 189.457 22.486,189.462 22.463,189.642 22.571 C 189.825 22.682,189.831 22.640,189.670 22.340 C 189.563 22.139,189.514 21.870,189.563 21.742 C 189.612 21.615,189.579 21.466,189.490 21.410 C 189.401 21.355,189.371 21.240,189.424 21.155 C 189.477 21.070,189.447 21.000,189.358 21.000 C 189.269 21.000,189.214 20.876,189.237 20.723 C 189.259 20.571,189.145 20.172,188.983 19.837 C 188.821 19.502,188.638 19.026,188.576 18.780 C 188.514 18.535,188.405 18.333,188.333 18.333 C 188.260 18.333,187.962 17.960,187.669 17.504 C 187.296 16.923,186.854 16.514,186.193 16.140 C 185.674 15.846,185.204 15.538,185.148 15.455 C 185.092 15.372,185.017 15.318,184.981 15.334 C 184.757 15.437,183.687 15.101,183.777 14.956 C 183.836 14.860,183.808 14.829,183.714 14.887 C 183.621 14.945,183.046 14.932,182.437 14.859 C 181.828 14.786,181.310 14.746,181.286 14.770 M193.542 25.443 C 193.332 25.528,193.219 32.341,193.418 32.861 C 193.488 33.043,194.818 33.068,200.793 33.000 L 208.083 32.917 208.083 29.167 L 208.083 25.417 200.917 25.387 C 196.975 25.371,193.656 25.396,193.542 25.443 M44.885 38.250 C 44.886 38.800,44.917 39.005,44.954 38.705 C 44.991 38.406,44.990 37.956,44.952 37.705 C 44.914 37.455,44.884 37.700,44.885 38.250 M253.333 53.995 C 253.333 57.510,253.308 57.871,253.085 57.553 C 252.846 57.212,251.526 56.476,251.003 56.392 C 249.679 56.179,248.667 56.079,248.667 56.161 C 248.667 56.216,248.464 56.252,248.216 56.241 C 247.968 56.230,247.575 56.321,247.341 56.443 C 247.108 56.565,246.820 56.665,246.701 56.666 C 246.498 56.667,246.317 56.787,245.744 57.304 C 245.610 57.425,245.500 57.467,245.500 57.397 C 245.500 57.327,245.390 57.415,245.255 57.593 C 245.121 57.771,245.008 57.850,245.005 57.769 C 244.998 57.568,244.534 58.196,243.696 59.542 C 243.310 60.160,243.074 60.667,243.170 60.667 C 243.283 60.667,243.272 60.799,243.139 61.042 C 242.628 61.971,242.588 65.926,243.078 67.049 C 243.149 67.213,243.163 67.392,243.109 67.447 C 243.054 67.501,243.158 67.753,243.338 68.007 C 243.519 68.261,243.667 68.539,243.667 68.626 C 243.667 68.713,243.854 68.987,244.083 69.234 C 244.313 69.482,244.503 69.736,244.507 69.800 C 244.561 70.682,249.997 72.364,250.000 71.500 C 250.000 71.454,250.275 71.402,250.610 71.383 C 250.946 71.365,251.264 71.281,251.318 71.197 C 251.372 71.113,251.738 70.882,252.132 70.682 C 252.553 70.469,252.914 70.142,253.011 69.887 C 253.216 69.348,253.315 69.433,253.349 70.175 C 253.402 71.323,253.413 71.333,254.678 71.333 C 255.490 71.333,255.834 71.271,255.836 71.125 C 255.838 70.983,255.896 70.997,256.018 71.167 C 256.168 71.375,256.181 71.365,256.099 71.111 C 256.045 70.943,256.000 66.168,256.000 60.499 L 256.000 50.192 254.666 50.138 L 253.333 50.083 253.333 53.995 M389.208 50.132 L 388.000 50.181 388.000 60.591 C 388.000 66.316,387.981 71.056,387.958 71.125 C 387.935 71.194,388.517 71.271,389.250 71.298 L 390.583 71.345 390.557 66.690 C 390.537 63.276,390.585 61.929,390.736 61.638 C 390.849 61.420,390.913 61.155,390.877 61.049 C 390.678 60.451,392.135 58.835,392.875 58.834 C 393.127 58.834,393.333 58.769,393.333 58.689 C 393.333 58.610,393.783 58.553,394.333 58.561 C 394.883 58.570,395.333 58.632,395.333 58.700 C 395.333 58.768,395.431 58.785,395.551 58.739 C 395.831 58.632,396.886 59.768,397.114 60.421 C 397.219 60.723,397.298 62.980,397.313 66.086 L 397.336 71.250 398.528 71.300 C 399.367 71.334,399.763 71.285,399.864 71.133 C 400.055 70.845,399.995 60.555,399.799 59.917 C 399.714 59.642,399.627 59.342,399.606 59.250 C 399.506 58.824,398.945 57.833,398.805 57.833 C 398.718 57.833,398.693 57.758,398.750 57.667 C 398.807 57.575,398.754 57.500,398.633 57.500 C 398.512 57.500,398.315 57.343,398.195 57.150 C 398.075 56.958,397.935 56.843,397.883 56.895 C 397.831 56.947,397.602 56.843,397.375 56.663 C 397.147 56.484,396.891 56.381,396.806 56.433 C 396.722 56.486,396.553 56.446,396.431 56.345 C 396.310 56.245,396.032 56.190,395.814 56.223 C 395.595 56.257,395.210 56.226,394.958 56.154 C 394.669 56.071,394.500 56.087,394.500 56.196 C 394.500 56.291,394.391 56.327,394.257 56.276 C 393.985 56.172,392.500 56.630,392.500 56.818 C 392.500 56.884,392.239 57.040,391.919 57.166 C 391.600 57.291,391.365 57.421,391.398 57.454 C 391.431 57.487,391.261 57.738,391.021 58.012 L 390.583 58.511 390.500 54.297 L 390.417 50.083 389.208 50.132 M204.708 51.016 C 204.594 51.136,204.500 51.186,204.500 51.128 C 204.500 50.915,202.337 51.650,201.977 51.986 C 201.772 52.177,201.505 52.333,201.385 52.333 C 201.265 52.333,201.167 52.438,201.167 52.566 C 201.167 52.693,201.054 52.841,200.915 52.894 C 200.777 52.947,200.575 53.199,200.466 53.454 C 200.358 53.708,200.159 54.048,200.025 54.208 C 199.891 54.369,199.827 54.500,199.883 54.500 C 199.939 54.500,199.884 54.834,199.761 55.241 C 199.638 55.649,199.562 56.007,199.592 56.036 C 199.621 56.066,199.688 56.524,199.740 57.054 C 199.867 58.355,200.847 60.000,201.493 60.000 C 201.600 60.000,201.640 60.075,201.583 60.167 C 201.525 60.261,201.665 60.333,201.907 60.333 C 202.175 60.333,202.333 60.426,202.333 60.583 C 202.333 60.722,202.481 60.833,202.667 60.833 C 202.850 60.833,203.000 60.896,203.000 60.973 C 203.000 61.149,204.267 61.576,204.692 61.544 C 204.865 61.531,204.971 61.579,204.926 61.652 C 204.881 61.724,205.070 61.789,205.345 61.797 C 205.620 61.805,206.124 61.906,206.464 62.022 C 206.805 62.138,207.158 62.240,207.250 62.250 C 207.342 62.260,207.642 62.370,207.917 62.493 C 208.415 62.718,208.555 62.760,208.968 62.808 C 209.088 62.822,209.133 62.920,209.067 63.026 C 208.988 63.154,209.022 63.173,209.169 63.082 C 209.315 62.992,209.525 63.109,209.796 63.431 C 210.020 63.698,210.146 63.804,210.077 63.667 C 210.008 63.529,210.096 63.567,210.273 63.750 C 212.458 66.009,210.397 69.227,206.796 69.180 C 204.856 69.155,204.050 68.869,202.802 67.765 C 202.556 67.547,202.399 67.323,202.455 67.267 C 202.510 67.212,202.464 67.167,202.351 67.167 C 202.239 67.167,202.181 67.110,202.222 67.042 C 202.263 66.973,202.174 66.606,202.023 66.227 L 201.750 65.538 200.333 65.560 C 199.016 65.582,198.920 65.607,198.971 65.917 C 199.088 66.645,199.535 68.012,199.720 68.212 C 199.828 68.329,199.940 68.535,199.967 68.671 C 199.995 68.806,200.145 69.013,200.301 69.132 C 200.456 69.250,200.761 69.501,200.978 69.689 C 201.470 70.116,203.000 71.026,203.000 70.892 C 203.000 70.837,203.098 70.874,203.219 70.974 C 203.647 71.330,208.667 71.662,208.667 71.335 C 208.667 71.267,208.948 71.171,209.292 71.122 C 209.635 71.074,210.292 70.864,210.750 70.656 C 211.208 70.449,211.645 70.293,211.721 70.310 C 211.796 70.327,211.811 70.265,211.753 70.171 C 211.694 70.077,211.715 70.000,211.798 70.000 C 211.881 70.000,212.219 69.737,212.550 69.417 C 212.880 69.096,213.108 68.833,213.056 68.833 C 213.004 68.833,213.083 68.648,213.231 68.423 C 213.379 68.197,213.500 67.903,213.500 67.770 C 213.500 67.637,213.592 67.497,213.705 67.459 C 213.957 67.376,214.040 64.167,213.791 64.167 C 213.703 64.167,213.674 64.054,213.727 63.917 C 213.780 63.779,213.750 63.667,213.661 63.667 C 213.573 63.667,213.500 63.531,213.500 63.365 C 213.500 63.199,213.347 62.899,213.160 62.698 C 212.973 62.497,212.861 62.333,212.910 62.333 C 213.082 62.333,212.335 61.670,211.506 61.087 C 211.046 60.764,210.553 60.500,210.410 60.500 C 210.267 60.500,209.910 60.372,209.617 60.216 C 209.323 60.059,209.019 59.950,208.941 59.972 C 208.862 59.994,208.707 59.936,208.594 59.842 C 208.482 59.749,208.209 59.640,207.987 59.599 C 207.765 59.558,207.583 59.513,207.583 59.498 C 207.583 59.484,207.396 59.441,207.167 59.403 C 206.938 59.365,206.637 59.313,206.500 59.288 C 206.362 59.264,206.091 59.154,205.897 59.044 C 205.703 58.935,205.503 58.886,205.453 58.936 C 205.403 58.986,205.187 58.931,204.973 58.813 C 204.759 58.696,204.472 58.581,204.336 58.559 C 204.201 58.536,204.063 58.439,204.031 58.342 C 203.999 58.246,203.865 58.167,203.734 58.167 C 203.602 58.167,203.358 57.942,203.191 57.667 C 203.024 57.393,202.857 57.199,202.819 57.237 C 202.750 57.305,202.652 56.714,202.627 56.083 C 202.582 54.957,203.483 53.500,204.223 53.500 C 204.345 53.500,204.497 53.448,204.560 53.384 C 204.887 53.058,207.532 53.014,207.911 53.329 C 208.052 53.445,208.167 53.490,208.167 53.428 C 208.167 53.365,208.392 53.447,208.667 53.610 C 208.942 53.772,209.167 53.972,209.167 54.054 C 209.167 54.135,209.283 54.158,209.425 54.103 C 209.568 54.048,209.643 54.070,209.593 54.151 C 209.543 54.232,209.619 54.343,209.762 54.398 C 209.904 54.453,209.980 54.565,209.929 54.647 C 209.878 54.729,209.948 54.888,210.083 55.000 C 210.219 55.112,210.293 55.263,210.249 55.335 C 210.205 55.406,210.284 55.509,210.425 55.564 C 210.567 55.618,210.660 55.794,210.633 55.956 C 210.590 56.213,210.766 56.260,212.050 56.333 L 213.517 56.417 213.420 55.704 C 213.274 54.633,211.939 52.462,211.292 52.243 C 211.131 52.189,211.000 52.070,211.000 51.979 C 211.000 51.888,210.924 51.860,210.832 51.917 C 210.740 51.974,210.619 51.904,210.565 51.762 C 210.510 51.619,210.400 51.542,210.321 51.591 C 210.242 51.640,209.856 51.519,209.464 51.323 C 208.568 50.877,205.060 50.650,204.708 51.016 M129.250 61.125 C 129.250 67.571,129.309 71.127,129.417 71.206 C 129.508 71.273,130.146 71.329,130.833 71.331 L 132.083 71.333 132.039 61.250 L 131.995 51.167 130.622 51.167 L 129.250 51.167 129.250 61.125 M138.000 61.250 L 138.000 71.333 144.632 71.333 L 151.265 71.333 151.441 70.208 C 151.538 69.590,151.586 69.027,151.549 68.958 C 151.511 68.890,149.088 68.833,146.163 68.833 L 140.846 68.833 140.798 65.333 L 140.750 61.833 145.716 61.833 L 150.682 61.833 150.633 60.708 L 150.583 59.583 145.667 59.539 L 140.750 59.496 140.799 56.493 L 140.848 53.491 146.007 53.537 L 151.167 53.583 151.167 52.375 L 151.167 51.167 144.583 51.167 L 138.000 51.167 138.000 61.250 M155.942 51.280 C 155.880 51.343,155.832 55.880,155.836 61.364 L 155.843 71.333 162.505 71.333 C 166.169 71.333,169.172 71.277,169.179 71.208 C 169.186 71.140,169.222 70.933,169.259 70.750 C 169.295 70.567,169.368 70.060,169.420 69.625 L 169.515 68.833 164.091 68.833 L 158.667 68.833 158.667 65.333 L 158.667 61.833 163.675 61.833 L 168.684 61.833 168.652 60.625 L 168.620 59.417 163.685 59.417 C 160.600 59.417,158.697 59.479,158.609 59.583 C 158.528 59.679,158.511 59.621,158.568 59.445 C 158.622 59.277,158.667 57.868,158.667 56.315 L 158.667 53.491 163.894 53.537 L 169.120 53.583 169.152 52.375 L 169.184 51.167 162.620 51.167 C 159.009 51.167,156.004 51.218,155.942 51.280 M173.833 61.253 L 173.833 71.340 180.579 71.330 L 187.326 71.319 187.301 70.618 C 187.287 70.232,187.333 69.673,187.401 69.375 L 187.526 68.833 182.103 68.833 L 176.680 68.833 176.631 65.333 L 176.583 61.833 181.542 61.833 L 186.500 61.833 186.500 60.667 L 186.500 59.500 181.542 59.500 L 176.583 59.500 176.632 56.500 L 176.681 53.500 181.882 53.500 L 187.083 53.500 187.083 52.333 L 187.083 51.167 180.458 51.167 L 173.833 51.167 173.833 61.253 M311.667 61.253 L 311.667 71.362 316.292 71.287 C 321.024 71.210,321.734 71.146,322.545 70.727 C 322.800 70.595,323.083 70.532,323.173 70.587 C 323.262 70.642,323.381 70.571,323.436 70.427 C 323.491 70.284,323.640 70.167,323.768 70.167 C 323.896 70.167,324.000 70.092,324.000 70.000 C 324.000 69.908,324.096 69.833,324.213 69.833 C 324.416 69.833,325.000 69.266,325.000 69.070 C 325.000 69.018,325.094 68.872,325.208 68.744 C 325.738 68.153,325.831 67.988,325.921 67.477 C 325.974 67.176,326.078 66.852,326.152 66.757 C 326.604 66.178,325.882 62.333,325.321 62.333 C 325.225 62.333,325.186 62.270,325.234 62.192 C 325.283 62.114,325.140 61.953,324.917 61.833 C 324.694 61.714,324.551 61.553,324.599 61.475 C 324.647 61.397,324.617 61.333,324.533 61.333 C 324.449 61.333,324.102 61.145,323.762 60.914 C 323.422 60.683,323.190 60.570,323.247 60.662 C 323.307 60.759,323.243 60.788,323.093 60.731 C 322.793 60.616,322.909 60.333,323.256 60.333 C 323.499 60.333,325.179 58.735,325.061 58.617 C 325.025 58.581,325.119 58.258,325.271 57.901 C 326.012 56.146,325.025 52.500,323.809 52.500 C 323.731 52.500,323.685 52.410,323.708 52.299 C 323.731 52.189,323.656 52.086,323.542 52.070 C 323.427 52.054,323.254 52.032,323.157 52.021 C 323.060 52.009,323.023 51.932,323.074 51.848 C 323.126 51.764,323.037 51.717,322.876 51.743 C 322.715 51.769,322.433 51.711,322.250 51.614 C 321.696 51.320,321.425 51.302,316.458 51.221 L 311.667 51.144 311.667 61.253 M218.667 54.326 L 218.667 56.500 217.333 56.500 L 216.000 56.500 216.000 57.566 C 216.000 58.809,216.031 58.833,217.586 58.833 L 218.646 58.833 218.698 64.141 C 218.734 67.867,218.808 69.519,218.944 69.683 C 219.051 69.812,219.154 69.992,219.173 70.083 C 219.264 70.519,220.156 71.277,220.393 71.120 C 220.424 71.100,220.554 71.171,220.684 71.278 C 220.926 71.480,223.763 71.500,224.083 71.302 C 224.175 71.245,224.225 70.749,224.194 70.196 L 224.138 69.193 223.219 69.248 C 222.082 69.317,221.210 68.681,221.400 67.922 C 221.462 67.677,221.435 67.500,221.337 67.500 C 221.225 67.500,221.167 65.985,221.166 63.125 L 221.166 58.750 222.875 58.750 L 224.583 58.750 224.606 57.625 L 224.628 56.500 222.889 56.500 L 221.150 56.500 221.178 54.375 L 221.206 52.250 219.936 52.201 L 218.667 52.153 218.667 54.326 M293.667 54.333 L 293.667 56.500 292.375 56.500 L 291.083 56.500 291.167 57.625 L 291.250 58.750 292.458 58.799 L 293.667 58.848 293.680 63.466 C 293.694 68.200,293.703 68.451,293.909 69.568 C 294.161 70.935,297.521 72.179,298.607 71.308 C 298.712 71.224,298.900 71.176,299.024 71.202 C 299.191 71.238,299.263 70.981,299.299 70.222 L 299.349 69.195 298.331 69.247 C 297.463 69.292,297.247 69.243,296.865 68.914 L 296.417 68.529 296.333 63.640 L 296.250 58.750 297.543 58.809 C 299.535 58.901,299.667 58.837,299.667 57.780 C 299.667 56.590,299.536 56.500,297.800 56.500 L 296.333 56.500 296.333 54.597 C 296.333 52.071,296.390 52.167,294.899 52.167 L 293.667 52.167 293.667 54.333 M320.667 53.668 C 320.667 53.739,320.783 53.842,320.925 53.897 C 321.101 53.964,321.144 53.930,321.060 53.790 C 320.993 53.676,321.270 53.860,321.677 54.197 C 322.084 54.535,322.394 54.903,322.366 55.015 C 322.338 55.128,322.411 55.279,322.528 55.351 C 322.794 55.515,322.849 57.000,322.600 57.317 C 322.499 57.446,322.435 57.577,322.458 57.609 C 322.717 57.968,321.699 58.934,320.809 59.173 C 320.410 59.281,318.796 59.379,317.209 59.392 L 314.334 59.417 314.333 56.462 L 314.333 53.508 317.125 53.462 C 320.034 53.415,320.667 53.452,320.667 53.668 M265.797 56.092 C 265.768 56.121,265.558 56.174,265.330 56.210 C 264.456 56.347,263.395 56.738,262.886 57.111 C 262.594 57.325,262.314 57.500,262.262 57.500 C 262.055 57.500,261.333 58.243,261.333 58.457 C 261.333 58.583,261.264 58.644,261.180 58.592 C 261.096 58.540,260.979 58.716,260.920 58.985 C 260.861 59.253,260.694 59.518,260.549 59.573 C 260.404 59.629,260.334 59.723,260.393 59.782 C 260.453 59.842,260.381 60.074,260.234 60.298 C 260.087 60.523,259.935 60.904,259.897 61.145 C 259.332 64.712,259.608 67.072,260.769 68.593 C 261.003 68.900,261.208 69.250,261.226 69.371 C 261.266 69.644,261.940 70.333,262.167 70.333 C 262.258 70.333,262.333 70.408,262.333 70.500 C 262.333 70.592,262.440 70.667,262.571 70.667 C 262.702 70.667,262.910 70.760,263.034 70.875 C 263.244 71.070,263.364 71.117,264.000 71.251 C 264.137 71.280,264.473 71.390,264.745 71.495 C 265.290 71.706,267.482 71.700,267.755 71.487 C 267.850 71.413,268.137 71.315,268.395 71.268 C 268.652 71.222,268.968 71.096,269.098 70.988 C 269.227 70.880,269.333 70.838,269.333 70.895 C 269.333 70.951,269.486 70.866,269.672 70.707 C 269.858 70.547,270.052 70.440,270.101 70.469 C 270.151 70.498,270.336 70.355,270.513 70.152 C 270.689 69.949,270.834 69.850,270.836 69.933 C 270.839 70.106,271.276 69.393,271.433 68.960 C 271.491 68.801,271.596 68.706,271.666 68.750 C 271.789 68.826,272.026 68.336,272.250 67.542 C 272.425 66.920,269.900 66.986,269.417 67.616 C 268.867 68.332,268.027 69.111,267.798 69.116 C 267.680 69.119,267.265 69.209,266.876 69.317 C 266.433 69.439,266.059 69.456,265.876 69.362 C 265.715 69.278,265.302 69.160,264.958 69.098 C 264.615 69.036,264.333 68.918,264.333 68.835 C 264.333 68.753,264.108 68.553,263.833 68.390 C 263.558 68.228,263.333 67.998,263.333 67.881 C 263.333 67.763,263.254 67.667,263.157 67.667 C 263.060 67.667,263.023 67.598,263.075 67.513 C 263.127 67.429,263.066 67.257,262.940 67.131 C 262.659 66.850,262.522 66.435,262.349 65.341 L 262.216 64.500 267.402 64.500 L 272.587 64.500 272.598 63.000 C 272.604 62.166,272.539 61.500,272.451 61.500 C 272.365 61.500,272.330 61.315,272.373 61.088 C 272.422 60.833,272.387 60.717,272.281 60.782 C 272.177 60.847,272.152 60.779,272.216 60.611 C 272.275 60.458,272.246 60.333,272.152 60.333 C 272.057 60.333,272.030 60.253,272.091 60.154 C 272.152 60.056,272.036 59.799,271.833 59.583 C 271.617 59.353,271.517 59.107,271.592 58.987 C 271.673 58.855,271.649 58.825,271.526 58.901 C 271.418 58.967,271.332 58.924,271.329 58.802 C 271.325 58.548,270.367 57.452,270.000 57.281 C 269.862 57.217,269.455 56.988,269.095 56.772 C 268.735 56.557,268.304 56.416,268.137 56.459 C 267.970 56.503,267.833 56.462,267.833 56.367 C 267.833 56.273,267.639 56.217,267.401 56.244 C 267.163 56.270,266.716 56.234,266.409 56.165 C 266.102 56.096,265.826 56.063,265.797 56.092 M283.028 56.204 C 283.186 56.317,283.143 56.339,282.876 56.280 C 282.671 56.235,282.171 56.298,281.766 56.420 C 281.362 56.542,280.999 56.610,280.961 56.572 C 280.922 56.534,280.467 56.903,279.949 57.393 C 279.431 57.883,279.055 58.333,279.114 58.392 C 279.174 58.451,279.138 58.500,279.036 58.500 C 278.926 58.500,278.829 58.106,278.800 57.542 L 278.750 56.583 277.483 56.535 L 276.217 56.487 276.181 63.619 C 276.140 72.015,276.014 71.333,277.601 71.333 L 278.833 71.333 278.841 66.875 C 278.846 63.490,278.904 62.259,279.082 61.761 C 279.210 61.400,279.281 61.050,279.239 60.983 C 279.198 60.915,279.273 60.751,279.407 60.617 C 279.541 60.483,279.608 60.330,279.555 60.277 C 279.279 60.001,280.935 58.728,281.458 58.814 C 281.573 58.833,281.667 58.787,281.667 58.713 C 281.667 58.583,282.985 58.571,283.500 58.697 C 284.163 58.859,284.833 59.231,284.833 59.437 C 284.833 59.563,284.927 59.667,285.042 59.667 C 285.156 59.667,285.261 59.864,285.275 60.105 C 285.289 60.346,285.390 60.598,285.498 60.665 C 285.607 60.733,285.680 60.929,285.662 61.102 C 285.643 61.275,285.637 63.651,285.647 66.382 L 285.667 71.347 286.958 71.299 L 288.250 71.250 288.277 65.625 C 288.293 62.531,288.241 60.000,288.162 60.000 C 288.083 60.000,288.048 59.850,288.083 59.667 C 288.119 59.483,288.077 59.333,287.990 59.333 C 287.904 59.333,287.833 59.214,287.833 59.067 C 287.833 58.921,287.678 58.584,287.489 58.317 C 287.299 58.051,287.192 57.833,287.251 57.833 C 287.311 57.833,287.004 57.562,286.569 57.231 C 285.692 56.561,285.023 56.302,284.201 56.315 C 283.900 56.320,283.686 56.270,283.727 56.204 C 283.767 56.137,283.577 56.075,283.303 56.065 C 282.947 56.052,282.869 56.092,283.028 56.204 M337.558 56.125 C 337.630 56.242,337.439 56.280,336.992 56.237 C 336.576 56.197,336.356 56.235,336.418 56.336 C 336.474 56.426,336.365 56.509,336.177 56.521 C 335.988 56.532,335.777 56.558,335.708 56.577 C 335.428 56.656,334.911 56.899,334.833 56.988 C 334.787 57.040,334.525 57.213,334.250 57.371 C 333.975 57.529,333.769 57.735,333.792 57.829 C 333.815 57.923,333.760 58.000,333.671 58.000 C 333.581 58.000,333.359 58.281,333.178 58.625 L 332.848 59.250 332.818 58.167 C 332.801 57.571,332.788 56.949,332.789 56.785 C 332.791 56.520,332.649 56.492,331.521 56.535 L 330.250 56.583 330.167 57.333 C 330.121 57.746,330.121 61.046,330.167 64.667 L 330.250 71.250 331.542 71.299 L 332.833 71.347 332.847 67.382 C 332.862 63.128,332.885 62.814,333.272 61.667 C 333.608 60.666,334.192 59.931,334.865 59.659 C 335.168 59.536,335.456 59.380,335.504 59.311 C 335.601 59.172,336.271 59.003,337.208 58.880 L 337.833 58.798 337.833 57.492 C 337.833 56.685,337.760 56.141,337.641 56.067 C 337.528 55.998,337.494 56.021,337.558 56.125 M345.000 56.194 C 345.000 56.283,344.851 56.309,344.669 56.251 C 344.204 56.103,342.405 56.595,342.028 56.972 C 341.854 57.146,341.477 57.426,341.190 57.596 C 340.902 57.766,340.667 57.992,340.667 58.099 C 340.667 58.205,340.552 58.387,340.413 58.503 C 340.273 58.619,340.192 58.748,340.233 58.789 C 340.274 58.830,340.201 59.166,340.071 59.536 C 339.678 60.650,339.692 60.667,341.064 60.667 C 342.294 60.667,343.082 60.204,342.755 59.675 C 342.632 59.475,343.862 58.475,344.113 58.572 C 344.222 58.614,344.335 58.584,344.364 58.505 C 344.411 58.379,345.618 58.242,345.833 58.338 C 345.879 58.359,346.070 58.393,346.257 58.414 C 346.873 58.482,347.838 58.858,347.752 58.996 C 347.706 59.071,347.791 59.179,347.941 59.236 C 348.092 59.294,348.167 59.388,348.110 59.446 C 348.052 59.503,348.116 59.633,348.250 59.734 C 348.419 59.860,348.509 60.299,348.539 61.144 L 348.583 62.370 346.636 62.302 C 345.564 62.264,344.713 62.274,344.745 62.325 C 344.776 62.375,344.565 62.428,344.276 62.442 C 343.241 62.493,342.761 62.624,341.133 63.301 C 340.793 63.442,340.554 63.619,340.601 63.695 C 340.648 63.771,340.569 63.833,340.427 63.833 C 340.284 63.833,340.167 63.934,340.167 64.058 C 340.167 64.181,340.018 64.416,339.837 64.580 C 339.656 64.744,339.548 64.943,339.597 65.022 C 339.646 65.102,339.619 65.167,339.538 65.167 C 339.456 65.167,339.377 65.260,339.363 65.375 C 339.349 65.490,339.271 65.996,339.189 66.500 C 339.108 67.004,339.074 67.473,339.114 67.541 C 339.153 67.609,339.219 67.816,339.259 67.999 C 339.300 68.183,339.365 68.475,339.403 68.648 C 339.501 69.085,339.875 69.723,340.129 69.885 C 340.245 69.960,340.297 70.091,340.244 70.177 C 340.190 70.263,340.268 70.333,340.417 70.333 C 340.565 70.333,340.639 70.410,340.581 70.504 C 340.523 70.598,340.537 70.660,340.613 70.641 C 340.746 70.608,341.999 71.166,342.167 71.333 C 342.425 71.591,345.333 71.733,345.333 71.487 C 345.333 71.392,345.403 71.357,345.489 71.410 C 345.870 71.645,348.615 70.154,348.410 69.823 C 348.357 69.737,348.393 69.667,348.490 69.667 C 348.587 69.667,348.675 69.835,348.686 70.042 C 348.696 70.248,348.723 70.492,348.744 70.583 C 348.765 70.675,348.794 70.885,348.808 71.050 C 348.830 71.315,348.988 71.347,350.127 71.319 L 351.421 71.288 351.357 70.602 C 351.322 70.225,351.208 69.862,351.105 69.794 C 351.001 69.726,350.991 69.671,351.083 69.669 C 351.188 69.668,351.235 68.873,351.210 67.542 C 351.189 66.373,351.150 64.067,351.124 62.417 C 351.084 59.904,351.027 59.315,350.770 58.792 C 350.410 58.060,349.479 57.000,349.196 57.000 C 349.088 57.000,349.000 56.921,349.000 56.823 C 349.000 56.726,348.925 56.693,348.833 56.750 C 348.742 56.807,348.667 56.786,348.667 56.704 C 348.667 56.622,348.573 56.552,348.458 56.547 C 348.344 56.543,348.025 56.490,347.750 56.429 C 347.475 56.369,346.875 56.282,346.417 56.235 C 345.958 56.189,345.452 56.124,345.292 56.091 C 345.131 56.058,345.000 56.104,345.000 56.194 M363.308 56.081 C 363.231 56.158,362.162 56.329,361.391 56.389 C 361.193 56.404,361.062 56.465,361.098 56.523 C 361.134 56.582,360.918 56.676,360.618 56.732 C 360.318 56.789,359.965 56.984,359.833 57.167 C 359.701 57.350,359.514 57.500,359.416 57.500 C 359.319 57.500,359.155 57.725,359.051 58.000 C 358.830 58.585,358.462 58.669,358.507 58.125 C 358.523 57.919,358.529 57.466,358.518 57.118 L 358.500 56.486 357.208 56.535 L 355.917 56.583 355.869 63.583 C 355.811 72.113,355.671 71.359,357.297 71.319 L 358.583 71.288 358.552 67.103 C 358.528 63.831,358.576 62.698,358.773 61.917 C 358.912 61.367,359.065 60.757,359.112 60.562 C 359.225 60.093,360.018 59.236,360.472 59.092 C 360.671 59.029,360.833 58.903,360.833 58.812 C 360.833 58.721,360.903 58.690,360.988 58.743 C 361.074 58.796,361.184 58.774,361.232 58.695 C 361.314 58.564,362.717 58.575,363.634 58.714 C 364.041 58.776,364.844 59.535,364.899 59.910 C 364.917 60.033,365.040 60.265,365.174 60.425 C 365.373 60.664,365.426 61.681,365.471 66.025 L 365.525 71.333 366.582 71.333 C 368.313 71.333,368.167 71.806,368.167 66.232 C 368.167 63.538,368.104 61.333,368.028 61.333 C 367.951 61.333,367.889 61.224,367.889 61.091 C 367.889 60.957,367.951 60.887,368.028 60.934 C 368.104 60.981,368.167 60.907,368.167 60.770 C 368.167 60.632,368.085 60.469,367.985 60.408 C 367.886 60.346,367.841 60.154,367.887 59.981 C 367.932 59.808,367.917 59.667,367.853 59.667 C 367.790 59.667,367.726 59.508,367.711 59.315 C 367.697 59.121,367.556 58.821,367.400 58.648 C 367.243 58.475,367.183 58.332,367.266 58.331 C 367.349 58.329,367.340 58.273,367.246 58.206 C 367.152 58.138,366.940 57.871,366.774 57.611 C 366.609 57.351,366.431 57.180,366.380 57.231 C 366.329 57.282,366.016 57.117,365.685 56.862 C 365.354 56.608,364.913 56.413,364.704 56.428 C 364.496 56.443,364.285 56.390,364.236 56.310 C 364.186 56.231,363.952 56.214,363.715 56.274 C 363.413 56.350,363.319 56.325,363.402 56.191 C 363.520 56.000,363.460 55.929,363.308 56.081 M378.499 56.192 C 378.179 56.259,377.747 56.272,377.540 56.221 C 377.332 56.171,377.070 56.202,376.956 56.292 C 376.843 56.381,376.526 56.508,376.252 56.574 C 375.978 56.639,375.715 56.747,375.668 56.814 C 375.622 56.880,375.317 57.096,374.993 57.293 C 374.175 57.789,373.827 58.130,373.249 59.000 C 372.975 59.413,372.688 59.796,372.611 59.852 C 372.534 59.908,372.476 60.001,372.481 60.059 C 372.496 60.216,372.329 60.712,372.149 61.048 C 372.061 61.213,372.033 61.419,372.088 61.507 C 372.142 61.595,372.112 61.667,372.020 61.667 C 371.922 61.667,371.895 61.916,371.953 62.276 C 372.010 62.624,371.987 62.845,371.901 62.792 C 371.816 62.739,371.750 63.238,371.750 63.933 C 371.750 64.611,371.790 65.167,371.839 65.167 C 371.887 65.167,371.935 65.410,371.944 65.708 C 371.962 66.261,372.023 66.535,372.238 67.029 C 372.304 67.182,372.376 67.424,372.397 67.566 C 372.418 67.708,372.637 68.133,372.884 68.510 C 373.131 68.888,373.333 69.257,373.333 69.330 C 373.333 69.404,373.451 69.509,373.594 69.564 C 373.737 69.619,373.808 69.740,373.751 69.832 C 373.694 69.924,373.764 70.000,373.907 70.000 C 374.050 70.000,374.167 70.075,374.167 70.167 C 374.167 70.258,374.284 70.333,374.427 70.333 C 374.569 70.333,374.640 70.408,374.583 70.500 C 374.527 70.592,374.618 70.667,374.786 70.667 C 374.955 70.667,375.259 70.783,375.463 70.926 C 375.838 71.189,376.342 71.353,376.875 71.386 C 377.035 71.397,377.167 71.461,377.167 71.531 C 377.167 71.663,379.679 71.594,380.250 71.445 C 380.433 71.398,380.583 71.347,380.583 71.333 C 380.583 71.319,380.726 71.281,380.900 71.248 C 381.074 71.216,381.262 71.123,381.317 71.043 C 381.372 70.963,381.659 70.800,381.956 70.680 C 382.253 70.560,382.458 70.400,382.412 70.326 C 382.366 70.252,382.480 70.143,382.664 70.084 C 382.849 70.025,383.000 69.878,383.000 69.757 C 383.000 69.635,383.117 69.491,383.261 69.436 C 383.404 69.381,383.477 69.265,383.424 69.178 C 383.370 69.091,383.459 68.943,383.621 68.849 C 383.784 68.754,383.851 68.675,383.771 68.672 C 383.691 68.669,383.725 68.547,383.847 68.400 C 383.968 68.254,384.092 67.974,384.122 67.779 C 384.152 67.584,384.249 67.351,384.338 67.262 C 384.805 66.795,384.499 66.653,383.125 66.702 C 382.134 66.736,381.762 66.808,381.792 66.958 C 381.815 67.073,381.754 67.167,381.657 67.167 C 381.560 67.167,381.518 67.228,381.565 67.303 C 381.611 67.378,381.507 67.542,381.333 67.667 C 381.160 67.792,381.056 67.956,381.103 68.032 C 381.150 68.107,381.071 68.214,380.927 68.269 C 380.784 68.324,380.667 68.465,380.667 68.582 C 380.667 68.760,380.474 68.871,379.833 69.063 C 379.787 69.077,379.675 69.134,379.583 69.190 C 378.846 69.637,375.387 68.724,375.896 68.215 C 375.942 68.169,375.828 67.970,375.642 67.774 C 374.520 66.585,374.182 63.475,374.936 61.268 C 375.186 60.536,376.701 58.715,377.118 58.644 C 378.266 58.451,379.338 58.463,379.588 58.670 C 379.715 58.776,379.883 58.822,379.961 58.774 C 380.142 58.662,381.000 59.389,381.000 59.654 C 381.000 59.764,381.066 59.812,381.147 59.762 C 381.228 59.712,381.456 60.048,381.655 60.509 L 382.015 61.348 383.216 61.299 L 384.417 61.250 384.381 60.670 C 384.296 59.270,382.205 56.717,381.021 56.568 C 380.872 56.549,380.375 56.429,379.916 56.302 C 379.402 56.159,378.858 56.117,378.499 56.192 M227.107 56.615 C 226.892 56.830,226.998 67.546,227.217 67.817 C 227.378 68.016,227.372 68.037,227.183 67.923 C 227.008 67.818,226.986 67.841,227.097 68.016 C 227.178 68.145,227.253 68.287,227.262 68.333 C 227.289 68.469,227.519 69.045,227.777 69.629 C 227.921 69.952,228.095 70.128,228.205 70.060 C 228.325 69.986,228.353 70.043,228.284 70.223 C 228.217 70.396,228.261 70.500,228.399 70.500 C 228.522 70.500,228.809 70.648,229.039 70.828 C 229.268 71.008,229.503 71.108,229.561 71.050 C 229.619 70.992,229.667 71.016,229.667 71.103 C 229.667 71.189,229.858 71.276,230.092 71.296 C 230.326 71.315,230.661 71.408,230.837 71.502 C 231.195 71.694,232.833 71.683,232.833 71.489 C 232.833 71.421,232.982 71.403,233.164 71.451 C 233.346 71.499,233.627 71.480,233.789 71.410 C 233.951 71.340,234.188 71.262,234.317 71.236 C 234.445 71.210,234.613 71.090,234.689 70.969 C 234.766 70.849,234.829 70.799,234.831 70.858 C 234.835 71.025,236.000 69.821,236.000 69.650 C 236.000 69.567,236.074 69.500,236.165 69.500 C 236.255 69.500,236.318 69.631,236.305 69.792 C 236.292 69.952,236.292 70.365,236.307 70.708 L 236.333 71.333 237.480 71.333 C 239.018 71.333,238.924 71.853,238.864 63.708 L 238.811 56.500 237.486 56.500 L 236.160 56.500 236.172 61.217 C 236.179 64.159,236.117 66.108,236.007 66.398 C 235.910 66.653,235.873 66.930,235.925 67.014 C 235.977 67.098,235.940 67.167,235.843 67.167 C 235.746 67.167,235.682 67.223,235.700 67.292 C 235.828 67.777,235.330 68.325,234.167 68.978 C 233.278 69.476,230.667 69.182,230.667 68.583 C 230.667 68.452,230.530 68.272,230.363 68.182 C 229.776 67.869,229.676 66.926,229.662 61.620 L 229.649 56.500 228.435 56.500 C 227.768 56.500,227.170 56.552,227.107 56.615 M267.167 58.464 C 267.396 58.495,267.608 58.591,267.639 58.678 C 267.670 58.765,267.759 58.796,267.838 58.747 C 267.916 58.699,268.146 58.830,268.348 59.038 C 268.550 59.246,268.653 59.304,268.576 59.167 C 268.456 58.952,268.475 58.949,268.716 59.144 C 268.870 59.269,268.955 59.438,268.905 59.519 C 268.855 59.600,268.890 59.667,268.982 59.667 C 269.208 59.667,269.669 60.662,269.754 61.331 C 269.791 61.626,269.867 62.010,269.922 62.184 C 270.019 62.488,269.876 62.500,266.190 62.500 L 262.358 62.500 262.430 61.920 C 262.470 61.600,262.654 61.070,262.839 60.741 C 263.034 60.393,263.086 60.187,262.962 60.250 C 262.846 60.310,262.919 60.210,263.125 60.028 C 263.331 59.846,263.500 59.652,263.500 59.598 C 263.500 59.438,264.185 58.801,264.392 58.770 C 264.497 58.754,264.658 58.694,264.750 58.637 C 264.842 58.580,265.212 58.486,265.574 58.429 C 265.935 58.372,266.264 58.291,266.305 58.250 C 266.346 58.209,266.463 58.228,266.565 58.292 C 266.667 58.356,266.938 58.433,267.167 58.464 M251.286 58.707 C 251.489 58.721,251.621 58.768,251.578 58.811 C 251.536 58.853,251.730 59.027,252.009 59.196 C 252.288 59.366,252.474 59.574,252.421 59.659 C 252.369 59.744,252.430 59.874,252.556 59.948 C 253.568 60.544,253.607 66.879,252.603 67.539 C 252.500 67.606,252.476 67.663,252.549 67.664 C 252.621 67.666,252.366 67.966,251.980 68.333 C 251.179 69.095,250.628 69.280,249.333 69.220 C 247.999 69.159,247.795 69.114,247.421 68.798 C 247.235 68.642,246.933 68.392,246.750 68.244 C 246.567 68.096,246.529 68.031,246.667 68.100 C 246.804 68.168,246.719 68.022,246.477 67.775 C 245.874 67.158,245.520 66.371,245.591 65.806 C 245.624 65.546,245.592 65.333,245.520 65.333 C 245.448 65.333,245.420 64.715,245.459 63.958 C 245.498 63.202,245.523 62.415,245.517 62.210 C 245.510 62.004,245.649 61.554,245.826 61.210 C 246.003 60.865,246.170 60.474,246.199 60.340 C 246.270 60.004,246.557 59.686,246.708 59.777 C 246.777 59.819,246.833 59.745,246.833 59.612 C 246.833 59.294,247.616 58.792,248.112 58.792 C 248.329 58.792,248.551 58.719,248.606 58.630 C 248.666 58.533,249.154 58.511,249.811 58.574 C 250.419 58.633,251.083 58.692,251.286 58.707 M320.454 61.921 C 320.842 61.975,321.203 62.090,321.256 62.176 C 321.309 62.263,321.467 62.333,321.606 62.333 C 321.990 62.333,323.118 63.630,323.232 64.203 C 323.590 65.990,322.715 68.333,321.690 68.333 C 321.554 68.333,321.298 68.465,321.121 68.625 C 320.842 68.877,320.357 68.925,317.566 68.976 L 314.333 69.035 314.333 65.439 L 314.333 61.843 316.542 61.797 C 318.868 61.748,319.317 61.762,320.454 61.921 M348.530 64.698 C 348.576 65.173,348.422 66.565,348.266 67.083 C 347.906 68.279,346.748 69.394,346.014 69.253 C 345.823 69.216,345.667 69.241,345.667 69.309 C 345.667 69.377,345.254 69.429,344.750 69.425 C 344.246 69.420,343.834 69.356,343.833 69.282 C 343.833 69.208,343.765 69.189,343.681 69.241 C 343.418 69.404,342.667 69.022,342.667 68.726 C 342.667 68.571,342.618 68.493,342.558 68.553 C 342.397 68.714,341.992 67.848,341.892 67.129 C 341.806 66.514,342.112 65.500,342.384 65.500 C 342.459 65.500,342.473 65.424,342.416 65.332 C 342.359 65.240,342.448 65.116,342.614 65.057 C 342.781 64.998,343.043 64.841,343.198 64.708 C 343.352 64.576,343.570 64.524,343.682 64.593 C 343.821 64.679,343.842 64.648,343.748 64.497 C 343.650 64.338,343.688 64.306,343.884 64.381 C 344.034 64.438,344.190 64.430,344.232 64.362 C 344.274 64.294,345.246 64.218,346.393 64.193 L 348.477 64.147 348.530 64.698 " stroke="none" fill="#0474ac" fill-rule="evenodd"></path><path id="path1" d="M12.312 0.077 C 12.269 0.120,11.938 0.192,11.576 0.237 C 11.213 0.283,10.167 0.541,9.250 0.810 C 7.781 1.242,7.100 1.415,5.518 1.761 C 5.299 1.809,4.512 2.023,3.768 2.236 C 3.025 2.449,2.023 2.722,1.542 2.843 L 0.667 3.063 0.655 6.823 C 0.649 8.891,0.616 11.896,0.582 13.500 C 0.432 20.601,-0.033 74.689,0.056 74.778 C 0.083 74.805,2.977 74.874,6.488 74.932 L 12.872 75.038 12.774 40.560 C 12.719 21.598,12.673 4.715,12.671 3.042 C 12.667 0.348,12.599 -0.211,12.312 0.077 M100.000 37.583 L 100.000 75.000 106.250 75.000 L 112.501 75.000 112.459 39.460 L 112.417 3.919 111.833 3.647 C 111.513 3.497,110.725 3.255,110.083 3.110 C 109.442 2.964,108.260 2.622,107.458 2.349 C 106.656 2.077,105.999 1.906,105.997 1.969 C 105.996 2.032,105.937 1.992,105.867 1.881 C 105.796 1.770,105.441 1.641,105.077 1.593 C 104.714 1.546,103.526 1.205,102.437 0.837 C 101.349 0.468,100.355 0.167,100.229 0.167 C 100.035 0.167,100.000 5.956,100.000 37.583 " stroke="none" fill="#0484b4" fill-rule="evenodd"></path><path id="path2" d="M12.889 4.958 C 12.949 7.685,12.998 24.560,12.999 42.458 L 13.000 75.000 28.560 75.000 L 44.121 75.000 44.225 73.958 C 44.282 73.385,44.328 71.468,44.328 69.698 C 44.327 67.927,44.359 66.427,44.398 66.363 C 44.461 66.262,44.557 61.901,44.778 49.083 C 44.813 47.067,44.867 43.129,44.898 40.333 C 44.938 36.779,45.021 35.024,45.174 34.500 C 45.295 34.087,45.403 33.712,45.416 33.667 C 45.594 32.997,47.090 30.298,47.583 29.755 C 49.414 27.740,50.492 26.775,51.475 26.272 C 51.810 26.101,52.196 25.868,52.333 25.754 C 53.392 24.883,56.295 23.779,56.904 24.017 C 60.915 25.581,66.167 29.695,66.167 31.272 C 66.167 31.382,66.228 31.497,66.304 31.528 C 66.379 31.558,66.713 32.221,67.045 33.000 L 67.649 34.417 67.740 37.750 C 67.790 39.583,67.869 42.246,67.916 43.667 C 67.963 45.087,68.038 47.637,68.082 49.333 C 68.452 63.295,68.681 71.228,68.766 72.958 L 68.867 75.000 84.413 75.000 L 99.958 75.000 99.938 37.583 C 99.926 17.004,99.868 0.167,99.808 0.167 C 99.748 0.167,99.260 0.418,98.724 0.726 C 96.606 1.941,95.034 2.706,93.833 3.106 C 93.421 3.243,92.408 3.608,91.583 3.917 C 89.472 4.707,85.167 6.001,84.653 6.000 C 84.416 6.000,84.170 6.052,84.107 6.115 C 84.043 6.179,83.832 6.255,83.638 6.285 C 83.444 6.314,82.714 6.481,82.017 6.656 C 80.408 7.059,78.323 7.464,77.250 7.582 C 76.792 7.632,76.192 7.704,75.917 7.741 C 72.533 8.199,71.272 8.355,69.500 8.536 C 66.836 8.809,56.190 8.812,53.250 8.540 C 48.967 8.145,43.528 7.468,40.583 6.965 C 38.933 6.683,37.433 6.428,37.250 6.398 C 37.067 6.368,36.804 6.316,36.667 6.283 C 36.529 6.249,36.042 6.165,35.583 6.095 C 35.125 6.026,34.487 5.905,34.167 5.826 C 33.846 5.747,33.396 5.649,33.167 5.608 C 32.938 5.566,32.112 5.368,31.333 5.167 C 29.461 4.684,29.326 4.652,28.798 4.575 C 28.182 4.484,26.030 3.909,25.417 3.671 C 25.142 3.564,24.879 3.480,24.833 3.483 C 24.787 3.487,24.488 3.421,24.167 3.336 C 23.846 3.252,23.396 3.150,23.167 3.110 C 22.661 3.021,19.179 1.960,15.667 0.823 C 14.246 0.363,13.015 -0.010,12.932 -0.006 C 12.841 -0.003,12.824 2.011,12.889 4.958 M135.609 6.958 C 135.538 7.072,140.663 7.069,146.583 6.953 C 147.867 6.927,145.940 6.890,142.302 6.870 C 138.663 6.850,135.652 6.890,135.609 6.958 M216.041 24.875 L 216.083 42.917 220.625 42.921 L 225.167 42.925 220.667 42.876 L 216.167 42.828 216.167 24.916 L 216.167 7.004 222.125 6.958 L 228.083 6.912 222.041 6.873 L 215.999 6.833 216.041 24.875 M237.408 12.083 C 237.408 15.017,237.430 16.193,237.458 14.698 C 237.486 13.202,237.486 10.802,237.458 9.365 C 237.430 7.927,237.408 9.150,237.408 12.083 M239.875 6.958 C 241.135 6.986,243.198 6.986,244.458 6.958 C 245.719 6.930,244.688 6.906,242.167 6.906 C 239.646 6.906,238.615 6.930,239.875 6.958 M267.219 6.958 C 269.128 6.985,272.203 6.985,274.053 6.958 C 275.903 6.931,274.342 6.909,270.583 6.909 C 266.825 6.909,265.311 6.931,267.219 6.958 M298.276 6.958 C 298.233 7.027,299.672 7.064,301.474 7.041 C 307.648 6.960,308.246 6.904,303.302 6.869 C 300.580 6.849,298.318 6.890,298.276 6.958 M320.609 6.958 C 320.538 7.072,325.506 7.070,331.667 6.953 C 332.996 6.928,331.069 6.890,327.385 6.870 C 323.701 6.850,320.652 6.890,320.609 6.958 M349.534 8.208 L 349.567 9.583 349.624 8.294 L 349.681 7.005 354.632 6.958 L 359.583 6.912 354.542 6.872 L 349.500 6.833 349.534 8.208 M374.500 6.994 L 379.417 7.083 379.501 24.917 L 379.586 42.750 379.626 24.801 L 379.667 6.852 374.625 6.878 L 369.583 6.905 374.500 6.994 M359.576 13.750 C 359.576 17.417,359.598 18.893,359.625 17.031 C 359.652 15.168,359.652 12.168,359.625 10.364 C 359.598 8.560,359.576 10.083,359.576 13.750 M369.409 13.750 C 369.409 17.417,369.431 18.893,369.458 17.031 C 369.485 15.168,369.485 12.168,369.458 10.364 C 369.431 8.560,369.409 10.083,369.409 13.750 M334.566 9.084 C 334.587 9.223,334.688 9.422,334.792 9.526 C 334.933 9.667,334.957 9.623,334.887 9.355 C 334.778 8.936,334.512 8.711,334.566 9.084 M262.929 9.762 C 262.867 10.006,262.849 10.238,262.889 10.277 C 262.928 10.317,263.010 10.149,263.071 9.905 C 263.133 9.661,263.151 9.429,263.111 9.389 C 263.072 9.350,262.990 9.518,262.929 9.762 M278.123 10.042 C 278.214 10.156,278.339 10.465,278.402 10.728 C 278.465 10.991,278.548 11.174,278.587 11.135 C 278.720 11.002,278.318 9.833,278.138 9.833 C 278.019 9.833,278.014 9.902,278.123 10.042 M319.512 10.458 C 319.522 10.864,319.540 10.879,319.667 10.583 C 319.862 10.128,319.862 10.000,319.667 10.000 C 319.575 10.000,319.505 10.206,319.512 10.458 M141.963 13.957 C 141.919 14.123,141.988 14.357,142.115 14.476 C 142.309 14.658,142.328 14.617,142.233 14.221 C 142.088 13.617,142.059 13.589,141.963 13.957 M178.083 15.090 C 177.422 15.319,177.421 15.320,178.000 15.226 C 178.321 15.174,178.655 15.064,178.742 14.982 C 178.936 14.799,178.911 14.803,178.083 15.090 M183.248 14.956 C 183.430 15.002,183.898 15.136,184.289 15.253 C 184.680 15.371,184.963 15.409,184.919 15.337 C 184.829 15.192,183.471 14.823,183.135 14.853 C 183.015 14.863,183.066 14.910,183.248 14.956 M166.292 15.291 C 167.598 15.319,169.735 15.319,171.042 15.291 C 172.348 15.263,171.279 15.240,168.667 15.240 C 166.054 15.240,164.985 15.263,166.292 15.291 M231.889 15.738 C 231.994 15.960,232.106 16.116,232.138 16.084 C 232.242 15.980,231.983 15.333,231.838 15.333 C 231.761 15.333,231.784 15.515,231.889 15.738 M163.833 16.917 C 163.833 17.451,163.870 17.853,163.914 17.808 C 164.041 17.681,164.067 16.178,163.944 16.055 C 163.883 15.994,163.833 16.382,163.833 16.917 M326.500 16.153 C 326.500 16.237,326.454 16.425,326.399 16.570 C 326.343 16.715,326.364 16.833,326.446 16.833 C 326.527 16.833,326.609 16.646,326.628 16.417 C 326.647 16.188,326.626 16.000,326.581 16.000 C 326.537 16.000,326.500 16.069,326.500 16.153 M173.545 16.508 C 173.532 16.683,173.591 16.870,173.677 16.923 C 173.763 16.976,173.833 16.870,173.833 16.686 C 173.833 16.252,173.576 16.093,173.545 16.508 M142.768 17.417 C 142.905 18.029,143.001 18.163,142.997 17.736 C 142.996 17.560,142.919 17.304,142.826 17.167 C 142.702 16.984,142.687 17.052,142.768 17.417 M187.919 17.880 C 188.080 18.135,188.254 18.302,188.305 18.251 C 188.356 18.199,188.225 17.991,188.012 17.787 L 187.626 17.417 187.919 17.880 M237.383 18.333 C 237.383 18.837,237.415 19.044,237.453 18.792 C 237.491 18.540,237.491 18.127,237.453 17.875 C 237.415 17.623,237.383 17.829,237.383 18.333 M269.444 17.778 C 269.383 17.839,269.340 18.083,269.348 18.319 C 269.362 18.742,269.365 18.741,269.509 18.258 C 269.660 17.751,269.638 17.584,269.444 17.778 M225.000 19.091 C 225.000 19.346,225.056 19.488,225.125 19.405 C 225.194 19.322,225.310 19.209,225.383 19.154 C 225.456 19.099,225.400 18.958,225.258 18.840 C 225.036 18.655,225.000 18.690,225.000 19.091 M237.375 19.917 C 237.377 20.283,237.411 20.414,237.451 20.206 C 237.491 19.999,237.490 19.699,237.448 19.540 C 237.406 19.380,237.374 19.550,237.375 19.917 M281.112 20.092 C 281.254 20.510,281.394 20.828,281.423 20.799 C 281.518 20.704,281.100 19.333,280.976 19.333 C 280.909 19.333,280.970 19.675,281.112 20.092 M271.572 19.917 C 271.637 20.192,271.762 20.490,271.850 20.580 C 271.937 20.669,271.921 20.482,271.813 20.163 C 271.561 19.417,271.419 19.272,271.572 19.917 M225.678 20.250 C 225.678 20.342,225.786 20.604,225.917 20.833 C 226.048 21.063,226.155 21.175,226.155 21.083 C 226.155 20.992,226.048 20.729,225.917 20.500 C 225.786 20.271,225.678 20.158,225.678 20.250 M328.505 20.667 C 328.505 20.804,328.578 21.029,328.667 21.167 C 328.810 21.389,328.828 21.389,328.828 21.167 C 328.828 21.029,328.756 20.804,328.667 20.667 C 328.523 20.444,328.505 20.444,328.505 20.667 M237.385 21.583 C 237.386 22.133,237.417 22.338,237.454 22.039 C 237.491 21.739,237.490 21.289,237.452 21.039 C 237.414 20.788,237.384 21.033,237.385 21.583 M338.187 21.170 C 338.439 21.917,338.581 22.062,338.428 21.417 C 338.363 21.142,338.238 20.843,338.150 20.754 C 338.063 20.664,338.079 20.852,338.187 21.170 M272.023 21.500 C 272.023 21.637,272.088 21.900,272.167 22.083 C 272.257 22.293,272.310 22.324,272.310 22.167 C 272.310 22.029,272.245 21.767,272.167 21.583 C 272.076 21.373,272.023 21.342,272.023 21.500 M225.209 22.417 C 225.211 22.783,225.245 22.914,225.285 22.706 C 225.324 22.499,225.323 22.199,225.281 22.040 C 225.239 21.880,225.207 22.050,225.209 22.417 M234.500 22.313 C 234.500 22.393,234.607 22.548,234.737 22.656 C 234.931 22.817,234.958 22.791,234.884 22.510 C 234.797 22.175,234.500 22.023,234.500 22.313 M139.881 23.458 C 139.859 23.854,139.875 23.871,139.999 23.583 C 140.187 23.149,140.196 23.000,140.036 23.000 C 139.965 23.000,139.895 23.206,139.881 23.458 M225.214 23.917 C 225.216 24.375,225.248 24.543,225.286 24.289 C 225.325 24.036,225.324 23.661,225.284 23.456 C 225.244 23.251,225.213 23.458,225.214 23.917 M130.853 23.528 C 130.842 23.681,130.790 23.943,130.737 24.111 C 130.647 24.401,130.651 24.401,130.832 24.120 C 130.937 23.956,130.989 23.694,130.947 23.536 C 130.879 23.278,130.870 23.278,130.853 23.528 M144.294 23.758 C 144.338 23.985,144.428 24.206,144.496 24.247 C 144.563 24.289,144.583 24.137,144.539 23.909 C 144.496 23.681,144.405 23.461,144.338 23.419 C 144.270 23.378,144.250 23.530,144.294 23.758 M324.646 24.222 C 324.634 24.283,324.614 24.390,324.602 24.458 C 324.589 24.527,324.519 24.677,324.446 24.792 C 324.373 24.907,324.387 25.000,324.479 25.000 C 324.674 25.000,324.908 24.353,324.765 24.210 C 324.711 24.155,324.657 24.161,324.646 24.222 M267.700 25.077 C 267.558 25.389,267.561 25.516,267.715 25.604 C 267.826 25.668,267.863 25.661,267.798 25.588 C 267.732 25.516,267.757 25.310,267.853 25.130 C 267.949 24.951,267.996 24.773,267.957 24.735 C 267.919 24.697,267.803 24.850,267.700 25.077 M282.609 25.167 C 282.799 25.917,283.188 26.834,283.077 26.268 C 283.025 26.004,282.874 25.554,282.743 25.268 C 282.563 24.878,282.530 24.853,282.609 25.167 M236.100 26.057 C 236.249 26.494,236.400 26.822,236.436 26.786 C 236.523 26.699,236.160 25.626,235.975 25.423 C 235.895 25.335,235.951 25.620,236.100 26.057 M228.062 26.458 C 228.216 26.756,228.370 27.000,228.405 27.000 C 228.558 27.000,228.273 26.325,228.040 26.130 C 227.822 25.950,227.825 26.000,228.062 26.458 M179.911 34.583 C 179.911 39.167,179.932 41.018,179.958 38.697 C 179.984 36.376,179.984 32.626,179.958 30.363 C 179.932 28.101,179.911 30.000,179.911 34.583 M173.667 34.747 L 173.667 42.828 168.958 42.875 L 164.250 42.922 169.042 42.961 L 173.833 43.000 173.833 34.833 C 173.833 30.342,173.796 26.667,173.750 26.667 C 173.704 26.667,173.667 30.303,173.667 34.747 M359.500 35.497 L 359.500 42.828 354.625 42.875 L 349.750 42.922 354.708 42.961 L 359.667 43.000 359.667 35.583 C 359.667 31.504,359.629 28.167,359.583 28.167 C 359.537 28.167,359.500 31.466,359.500 35.497 M369.410 35.417 C 369.410 39.450,369.432 41.076,369.458 39.030 C 369.485 36.985,369.485 33.685,369.458 31.697 C 369.432 29.709,369.410 31.383,369.410 35.417 M237.705 29.000 C 237.705 29.321,237.740 29.452,237.782 29.292 C 237.823 29.131,237.823 28.869,237.782 28.708 C 237.740 28.548,237.705 28.679,237.705 29.000 M200.833 33.000 L 193.583 33.089 200.875 33.128 C 205.651 33.153,208.167 33.109,208.167 33.000 C 208.167 32.908,208.148 32.851,208.125 32.872 C 208.102 32.894,204.821 32.951,200.833 33.000 M308.058 33.792 C 308.039 34.266,308.066 34.336,308.171 34.083 C 308.349 33.655,308.369 33.166,308.208 33.167 C 308.140 33.168,308.072 33.449,308.058 33.792 M296.250 35.604 L 295.750 35.848 296.250 35.745 C 296.525 35.689,296.821 35.573,296.908 35.488 C 297.138 35.264,296.841 35.316,296.250 35.604 M139.792 35.791 C 141.190 35.819,143.477 35.819,144.875 35.791 C 146.273 35.763,145.129 35.741,142.333 35.741 C 139.537 35.741,138.394 35.763,139.792 35.791 M265.444 35.778 C 265.383 35.839,265.334 35.970,265.336 36.069 C 265.337 36.173,265.396 36.159,265.474 36.037 C 265.580 35.870,266.678 35.834,270.555 35.870 C 273.275 35.896,275.500 35.860,275.500 35.792 C 275.500 35.637,265.599 35.624,265.444 35.778 M285.873 36.339 C 285.967 36.709,286.069 36.987,286.100 36.956 C 286.206 36.850,285.957 35.667,285.829 35.667 C 285.759 35.667,285.779 35.969,285.873 36.339 M322.058 35.924 C 322.003 36.065,322.006 36.228,322.063 36.285 C 322.120 36.342,322.167 36.265,322.167 36.114 C 322.167 35.865,322.651 35.834,327.208 35.792 L 332.250 35.745 327.203 35.706 C 322.784 35.672,322.144 35.699,322.058 35.924 M321.853 36.778 C 321.842 36.885,321.785 37.110,321.725 37.278 C 321.642 37.515,321.664 37.541,321.824 37.393 C 321.938 37.288,321.995 37.063,321.952 36.893 C 321.908 36.723,321.863 36.671,321.853 36.778 M264.861 37.991 C 264.764 38.271,264.719 38.500,264.763 38.500 C 264.875 38.500,265.190 37.634,265.107 37.552 C 265.069 37.514,264.959 37.712,264.861 37.991 M276.020 38.337 C 276.273 39.083,276.415 39.228,276.262 38.583 C 276.196 38.308,276.071 38.010,275.984 37.920 C 275.896 37.831,275.912 38.018,276.020 38.337 M233.178 38.917 C 233.178 39.008,233.286 39.271,233.417 39.500 C 233.548 39.729,233.655 39.842,233.655 39.750 C 233.655 39.658,233.548 39.396,233.417 39.167 C 233.286 38.938,233.178 38.825,233.178 38.917 M135.925 40.708 C 135.753 41.268,135.652 41.904,135.751 41.805 C 135.884 41.671,136.162 40.500,136.061 40.500 C 136.021 40.500,135.961 40.594,135.925 40.708 M148.461 40.924 C 148.504 41.152,148.595 41.372,148.662 41.414 C 148.730 41.456,148.750 41.304,148.706 41.076 C 148.662 40.848,148.572 40.628,148.504 40.586 C 148.437 40.544,148.417 40.696,148.461 40.924 M344.186 41.500 C 344.194 41.637,344.260 41.938,344.333 42.167 L 344.467 42.583 344.481 42.167 C 344.489 41.938,344.422 41.637,344.333 41.500 C 344.190 41.278,344.173 41.278,344.186 41.500 M148.888 42.403 C 148.950 42.563,149.000 42.763,149.000 42.847 C 149.000 42.937,151.128 42.984,154.208 42.961 L 159.417 42.922 154.292 42.875 C 149.986 42.836,149.167 42.790,149.167 42.591 C 149.167 42.460,149.079 42.299,148.972 42.232 C 148.839 42.150,148.812 42.205,148.888 42.403 M303.042 42.339 C 302.544 42.538,302.565 42.640,303.083 42.541 C 303.313 42.497,303.500 42.395,303.500 42.314 C 303.500 42.233,303.481 42.171,303.458 42.177 C 303.435 42.183,303.248 42.256,303.042 42.339 M253.667 42.750 C 253.667 42.968,254.321 42.995,258.708 42.961 L 263.750 42.922 258.875 42.875 C 255.818 42.846,254.000 42.767,254.000 42.664 C 254.000 42.574,253.925 42.500,253.833 42.500 C 253.742 42.500,253.667 42.612,253.667 42.750 M277.477 42.877 C 277.548 42.948,279.888 42.985,282.677 42.961 L 287.750 42.916 282.550 42.833 C 279.690 42.787,277.407 42.807,277.477 42.877 M128.208 42.958 C 129.560 42.986,131.773 42.986,133.125 42.958 C 134.477 42.930,133.371 42.907,130.667 42.907 C 127.962 42.907,126.856 42.930,128.208 42.958 M182.458 42.958 C 183.765 42.986,185.902 42.986,187.208 42.958 C 188.515 42.930,187.446 42.907,184.833 42.907 C 182.221 42.907,181.152 42.930,182.458 42.958 M237.948 42.958 C 239.523 42.985,242.148 42.985,243.781 42.958 C 245.414 42.931,244.125 42.908,240.917 42.908 C 237.708 42.908,236.372 42.931,237.948 42.958 M312.875 42.958 C 314.227 42.986,316.440 42.986,317.792 42.958 C 319.144 42.930,318.037 42.907,315.333 42.907 C 312.629 42.907,311.523 42.930,312.875 42.958 M336.885 42.958 C 338.335 42.986,340.660 42.986,342.052 42.958 C 343.444 42.930,342.258 42.907,339.417 42.907 C 336.575 42.908,335.436 42.930,336.885 42.958 M372.125 42.958 C 373.523 42.986,375.810 42.986,377.208 42.958 C 378.606 42.930,377.462 42.907,374.667 42.907 C 371.871 42.907,370.727 42.930,372.125 42.958 M295.875 43.621 C 296.219 43.657,296.781 43.657,297.125 43.621 C 297.469 43.585,297.188 43.556,296.500 43.556 C 295.813 43.556,295.531 43.585,295.875 43.621 M254.129 50.122 C 254.521 50.157,255.121 50.157,255.463 50.121 C 255.804 50.085,255.483 50.057,254.750 50.057 C 254.017 50.058,253.737 50.087,254.129 50.122 M387.874 60.542 L 387.914 71.083 387.958 60.632 L 388.002 50.181 389.210 50.124 L 390.417 50.066 389.125 50.033 L 387.833 50.000 387.874 60.542 M390.539 54.248 L 390.500 58.578 390.967 58.081 C 391.490 57.524,391.516 57.283,391.004 57.746 C 390.674 58.045,390.672 58.026,390.625 53.981 L 390.577 49.917 390.539 54.248 M132.078 61.167 C 132.078 66.712,132.099 68.981,132.125 66.208 C 132.151 63.435,132.151 58.898,132.125 56.125 C 132.099 53.352,132.078 55.621,132.078 61.167 M129.245 61.167 C 129.245 66.621,129.266 68.852,129.292 66.125 C 129.317 63.398,129.317 58.935,129.292 56.208 C 129.266 53.481,129.245 55.712,129.245 61.167 M151.220 52.333 C 151.220 52.929,151.250 53.173,151.287 52.875 C 151.324 52.577,151.324 52.090,151.287 51.792 C 151.250 51.494,151.220 51.737,151.220 52.333 M187.053 52.333 C 187.053 52.929,187.084 53.173,187.121 52.875 C 187.158 52.577,187.158 52.090,187.121 51.792 C 187.084 51.494,187.053 51.737,187.053 52.333 M296.296 53.891 C 296.369 56.538,296.444 56.783,296.473 54.468 C 296.488 53.305,296.444 52.318,296.375 52.276 C 296.306 52.233,296.271 52.960,296.296 53.891 M211.998 52.918 C 212.661 53.717,212.717 53.769,212.536 53.415 C 212.441 53.230,212.189 52.931,211.974 52.749 C 211.597 52.431,211.598 52.437,211.998 52.918 M221.231 54.500 C 221.231 55.646,221.258 56.115,221.290 55.542 C 221.323 54.969,221.323 54.031,221.290 53.458 C 221.258 52.885,221.231 53.354,221.231 54.500 M163.875 53.458 L 158.667 53.505 158.667 56.322 C 158.667 57.872,158.641 59.239,158.611 59.361 C 158.580 59.483,158.580 59.546,158.610 59.500 C 158.641 59.454,160.909 59.454,163.651 59.500 C 166.392 59.546,168.600 59.527,168.558 59.458 C 168.515 59.390,166.310 59.333,163.657 59.333 L 158.833 59.333 158.833 56.500 L 158.833 53.667 163.907 53.667 C 167.109 53.667,169.018 53.605,169.083 53.500 C 169.140 53.408,169.163 53.351,169.135 53.373 C 169.107 53.394,166.740 53.433,163.875 53.458 M319.833 53.523 C 319.833 53.602,320.021 53.667,320.250 53.667 C 320.479 53.667,320.667 53.638,320.667 53.603 C 320.667 53.568,320.479 53.503,320.250 53.459 C 320.021 53.415,319.833 53.444,319.833 53.523 M143.385 53.625 C 144.835 53.653,147.160 53.652,148.552 53.625 C 149.944 53.597,148.758 53.574,145.917 53.574 C 143.075 53.574,141.936 53.597,143.385 53.625 M179.302 53.625 C 180.798 53.652,183.198 53.652,184.635 53.625 C 186.073 53.597,184.850 53.574,181.917 53.574 C 178.983 53.574,177.807 53.597,179.302 53.625 M314.403 56.500 C 314.403 58.196,314.427 58.890,314.458 58.042 C 314.488 57.194,314.488 55.806,314.458 54.958 C 314.427 54.110,314.403 54.804,314.403 56.500 M249.042 56.115 C 249.202 56.157,249.465 56.157,249.625 56.115 C 249.785 56.073,249.654 56.039,249.333 56.039 C 249.012 56.039,248.881 56.073,249.042 56.115 M265.758 56.179 C 265.827 56.291,266.667 56.182,266.667 56.061 C 266.667 56.025,266.447 56.011,266.178 56.032 C 265.910 56.052,265.720 56.119,265.758 56.179 M282.937 56.146 C 282.742 56.223,282.960 56.271,283.521 56.275 C 284.167 56.279,284.301 56.247,284.000 56.157 C 283.465 55.998,283.318 55.997,282.937 56.146 M362.611 56.123 C 362.569 56.193,362.826 56.261,363.183 56.275 C 363.540 56.289,363.801 56.249,363.762 56.186 C 363.662 56.024,362.704 55.972,362.611 56.123 M377.833 56.175 C 377.654 56.297,377.772 56.314,378.250 56.234 C 379.077 56.096,379.210 55.999,378.569 56.003 C 378.302 56.004,377.971 56.082,377.833 56.175 M394.667 56.064 C 394.667 56.099,394.854 56.164,395.083 56.207 C 395.313 56.251,395.500 56.223,395.500 56.144 C 395.500 56.065,395.313 56.000,395.083 56.000 C 394.854 56.000,394.667 56.029,394.667 56.064 M210.500 56.375 C 210.500 56.444,211.156 56.489,211.958 56.475 C 213.483 56.449,213.313 56.376,211.541 56.297 C 210.968 56.271,210.500 56.306,210.500 56.375 M250.583 56.333 C 251.042 56.530,251.205 56.530,251.083 56.333 C 251.027 56.242,250.816 56.172,250.615 56.178 C 250.263 56.190,250.262 56.195,250.583 56.333 M361.083 56.423 C 360.808 56.549,360.696 56.652,360.833 56.652 C 360.971 56.652,361.308 56.549,361.583 56.423 C 361.858 56.297,361.971 56.194,361.833 56.194 C 361.696 56.194,361.358 56.297,361.083 56.423 M364.227 56.282 C 364.290 56.346,364.509 56.421,364.713 56.449 C 365.007 56.490,365.032 56.467,364.833 56.336 C 364.550 56.150,364.050 56.105,364.227 56.282 M226.869 61.708 C 226.904 66.893,226.960 66.304,227.041 59.875 C 227.064 58.018,227.027 56.500,226.958 56.500 C 226.890 56.500,226.849 58.844,226.869 61.708 M238.909 63.167 C 238.909 66.879,238.931 68.398,238.958 66.542 C 238.985 64.685,238.985 61.648,238.958 59.792 C 238.931 57.935,238.909 59.454,238.909 63.167 M330.013 57.292 C 330.028 58.163,330.109 58.093,330.204 57.125 C 330.239 56.781,330.206 56.500,330.133 56.500 C 330.060 56.500,330.006 56.856,330.013 57.292 M262.718 57.095 L 262.250 57.524 262.792 57.147 C 263.090 56.940,263.333 56.747,263.333 56.719 C 263.333 56.587,263.149 56.700,262.718 57.095 M291.023 57.708 C 291.010 58.327,291.057 58.833,291.126 58.833 C 291.196 58.833,291.230 58.477,291.202 58.042 C 291.116 56.672,291.046 56.543,291.023 57.708 M391.944 56.936 C 391.683 57.077,391.501 57.224,391.539 57.261 C 391.638 57.360,392.497 56.940,392.499 56.792 C 392.500 56.633,392.506 56.631,391.944 56.936 M375.042 57.037 C 374.835 57.136,374.667 57.283,374.667 57.363 C 374.667 57.477,375.176 57.230,375.653 56.884 C 375.819 56.763,375.383 56.872,375.042 57.037 M276.209 57.583 C 276.211 57.950,276.245 58.080,276.285 57.873 C 276.324 57.666,276.323 57.366,276.281 57.206 C 276.239 57.047,276.207 57.217,276.209 57.583 M382.838 57.749 C 383.229 58.280,383.500 58.536,383.500 58.374 C 383.500 58.292,383.296 58.043,383.047 57.821 C 382.714 57.524,382.659 57.505,382.838 57.749 M358.519 58.125 C 358.509 58.331,358.572 58.500,358.661 58.500 C 358.749 58.500,358.903 58.331,359.003 58.125 C 359.171 57.778,359.167 57.773,358.940 58.054 C 358.704 58.347,358.693 58.347,358.617 58.054 C 358.554 57.810,358.535 57.825,358.519 58.125 M266.083 58.333 C 265.790 58.459,265.806 58.478,266.218 58.488 C 266.490 58.495,266.643 58.430,266.583 58.333 C 266.527 58.242,266.466 58.172,266.448 58.178 C 266.431 58.185,266.267 58.255,266.083 58.333 M330.037 64.615 C 330.017 68.208,330.056 71.182,330.125 71.224 C 330.239 71.295,330.236 66.348,330.119 60.417 C 330.094 59.133,330.057 61.023,330.037 64.615 M345.000 58.333 L 344.250 58.450 345.135 58.475 C 345.688 58.491,345.981 58.438,345.917 58.333 C 345.860 58.242,345.799 58.178,345.782 58.192 C 345.764 58.205,345.412 58.269,345.000 58.333 M378.667 58.523 C 378.667 58.602,378.854 58.667,379.083 58.667 C 379.313 58.667,379.500 58.638,379.500 58.603 C 379.500 58.568,379.313 58.503,379.083 58.459 C 378.854 58.415,378.667 58.444,378.667 58.523 M249.208 58.615 C 249.369 58.657,249.631 58.657,249.792 58.615 C 249.952 58.573,249.821 58.539,249.500 58.539 C 249.179 58.539,249.048 58.573,249.208 58.615 M221.201 63.042 C 221.182 65.494,221.223 67.500,221.292 67.500 C 221.360 67.500,221.397 66.169,221.374 64.542 C 221.295 59.067,221.236 58.556,221.201 63.042 M271.336 58.773 C 271.334 58.878,271.488 59.140,271.676 59.357 C 271.945 59.666,271.982 59.679,271.848 59.417 C 271.559 58.851,271.339 58.574,271.336 58.773 M296.293 61.458 C 296.374 66.745,296.431 67.239,296.465 62.958 C 296.484 60.598,296.444 58.667,296.375 58.666 C 296.306 58.666,296.269 59.923,296.293 61.458 M395.592 58.794 C 395.679 58.864,395.975 59.108,396.250 59.335 L 396.750 59.749 396.260 59.208 C 395.991 58.910,395.695 58.667,395.602 58.667 C 395.497 58.667,395.493 58.715,395.592 58.794 M243.620 59.357 C 243.213 60.072,243.336 60.106,243.795 59.405 C 244.001 59.090,244.113 58.834,244.043 58.834 C 243.974 58.835,243.783 59.070,243.620 59.357 M324.364 59.433 C 323.724 60.155,323.667 60.380,324.265 59.821 C 324.662 59.449,325.091 58.833,324.953 58.833 C 324.921 58.833,324.656 59.103,324.364 59.433 M145.583 59.496 L 150.583 59.583 150.633 60.706 L 150.682 61.828 145.716 61.876 L 140.750 61.924 145.750 61.920 L 150.750 61.917 150.799 60.625 L 150.847 59.333 145.715 59.371 L 140.583 59.409 145.583 59.496 M181.500 59.457 L 186.500 59.505 186.500 60.667 L 186.500 61.828 181.458 61.875 L 176.417 61.922 181.549 61.961 L 186.681 62.000 186.632 60.708 L 186.583 59.417 181.542 59.413 L 176.500 59.409 181.500 59.457 M348.178 59.782 C 348.216 60.214,348.477 60.581,348.488 60.218 C 348.495 60.017,348.425 59.807,348.333 59.750 C 348.242 59.693,348.172 59.708,348.178 59.782 M359.357 60.024 C 359.240 60.212,359.180 60.402,359.225 60.447 C 359.270 60.492,359.393 60.366,359.500 60.167 C 359.752 59.696,359.635 59.579,359.357 60.024 M381.591 60.708 C 381.653 60.915,381.773 61.157,381.857 61.246 C 381.940 61.336,381.925 61.167,381.822 60.871 C 381.610 60.266,381.416 60.128,381.591 60.708 M272.268 60.917 C 272.405 61.529,272.501 61.663,272.497 61.236 C 272.496 61.060,272.419 60.804,272.326 60.667 C 272.202 60.484,272.187 60.552,272.268 60.917 M242.931 60.941 C 242.772 61.354,242.947 61.411,243.159 61.014 C 243.261 60.823,243.276 60.667,243.190 60.667 C 243.105 60.667,242.988 60.790,242.931 60.941 M288.296 66.333 C 288.271 69.083,288.306 71.333,288.375 71.333 C 288.444 71.333,288.500 69.083,288.500 66.333 C 288.500 63.583,288.465 61.333,288.421 61.333 C 288.378 61.333,288.322 63.583,288.296 66.333 M365.407 66.417 C 365.407 69.167,365.430 70.315,365.458 68.969 C 365.486 67.622,365.486 65.372,365.458 63.969 C 365.430 62.565,365.407 63.667,365.407 66.417 M158.705 65.375 L 158.743 68.917 158.791 65.461 L 158.840 62.005 163.795 61.958 L 168.750 61.912 163.708 61.872 L 158.667 61.833 158.705 65.375 M314.372 65.375 L 314.333 69.000 317.042 68.963 L 319.750 68.926 317.128 68.875 L 314.507 68.825 314.458 65.287 L 314.410 61.750 314.372 65.375 M397.172 66.569 C 397.180 69.209,397.224 71.332,397.270 71.286 C 397.378 71.177,397.350 61.961,397.241 61.852 C 397.195 61.806,397.164 63.929,397.172 66.569 M259.604 62.256 C 259.547 62.405,259.507 62.690,259.515 62.889 C 259.526 63.145,259.577 63.087,259.691 62.690 C 259.857 62.113,259.789 61.774,259.604 62.256 M371.854 62.250 C 371.840 62.433,371.790 62.771,371.743 63.000 L 371.657 63.417 371.836 63.008 C 371.934 62.783,371.984 62.445,371.947 62.258 C 371.880 61.925,371.878 61.925,371.854 62.250 M346.297 62.290 C 346.782 62.324,347.532 62.323,347.964 62.289 C 348.396 62.255,348.000 62.227,347.083 62.228 C 346.167 62.228,345.813 62.256,346.297 62.290 M208.592 62.802 C 208.807 62.986,209.667 63.345,209.667 63.251 C 209.667 63.159,208.733 62.667,208.558 62.667 C 208.490 62.667,208.505 62.727,208.592 62.802 M390.572 66.917 C 390.572 69.208,390.596 70.169,390.624 69.051 C 390.653 67.934,390.653 66.059,390.625 64.885 C 390.596 63.711,390.572 64.625,390.572 66.917 M358.572 67.083 C 358.572 69.283,358.596 70.160,358.625 69.032 C 358.653 67.904,358.653 66.104,358.624 65.032 C 358.595 63.960,358.572 64.883,358.572 67.083 M346.380 64.289 C 346.818 64.324,347.493 64.323,347.880 64.288 C 348.267 64.254,347.908 64.225,347.083 64.226 C 346.258 64.226,345.942 64.255,346.380 64.289 M245.612 66.461 C 245.664 66.669,245.773 66.879,245.853 66.929 C 246.082 67.070,246.026 66.765,245.758 66.407 C 245.525 66.095,245.520 66.097,245.612 66.461 M341.872 66.667 C 341.872 66.987,341.906 67.119,341.948 66.958 C 341.990 66.798,341.990 66.535,341.948 66.375 C 341.906 66.215,341.872 66.346,341.872 66.667 M374.833 66.397 C 374.833 66.576,375.329 67.500,375.425 67.500 C 375.471 67.500,375.385 67.256,375.233 66.958 C 374.924 66.350,374.833 66.223,374.833 66.397 M381.775 66.625 C 381.733 66.694,382.159 66.729,382.724 66.703 C 384.449 66.625,384.654 66.551,383.218 66.525 C 382.467 66.511,381.818 66.556,381.775 66.625 M270.292 67.122 C 270.681 67.157,271.319 67.157,271.708 67.122 C 272.098 67.087,271.779 67.058,271.000 67.058 C 270.221 67.058,269.902 67.087,270.292 67.122 M235.417 67.833 C 235.274 68.108,235.196 68.333,235.241 68.333 C 235.287 68.333,235.441 68.108,235.583 67.833 C 235.726 67.558,235.804 67.333,235.759 67.333 C 235.713 67.333,235.559 67.558,235.417 67.833 M322.240 67.875 L 321.750 68.417 322.292 67.927 C 322.590 67.658,322.833 67.414,322.833 67.385 C 322.833 67.257,322.696 67.370,322.240 67.875 M260.594 68.638 C 260.771 68.943,261.024 69.280,261.156 69.388 C 261.306 69.511,261.275 69.377,261.073 69.029 C 260.895 68.724,260.642 68.386,260.511 68.279 C 260.360 68.156,260.391 68.290,260.594 68.638 M376.327 68.655 C 376.644 68.936,376.976 69.167,377.063 69.167 C 377.151 69.167,377.191 69.145,377.153 69.118 C 377.115 69.092,376.783 68.861,376.417 68.606 L 375.750 68.143 376.327 68.655 M230.907 68.907 C 231.085 69.050,231.347 69.161,231.490 69.154 C 231.715 69.142,231.716 69.128,231.500 69.048 C 231.362 68.997,231.100 68.886,230.917 68.802 C 230.589 68.651,230.589 68.652,230.907 68.907 M224.218 70.083 C 224.219 70.633,224.250 70.838,224.287 70.539 C 224.325 70.239,224.324 69.789,224.286 69.539 C 224.248 69.288,224.217 69.533,224.218 70.083 M266.000 69.333 C 266.000 69.524,266.238 69.524,266.833 69.333 C 267.205 69.214,267.183 69.198,266.625 69.183 C 266.281 69.174,266.000 69.242,266.000 69.333 M200.905 69.796 C 201.173 70.090,201.426 70.297,201.466 70.256 C 201.546 70.176,201.272 69.889,200.749 69.506 C 200.566 69.372,200.636 69.503,200.905 69.796 M348.452 70.003 C 348.581 70.496,348.799 70.560,348.706 70.078 C 348.663 69.852,348.569 69.667,348.496 69.667 C 348.424 69.667,348.404 69.818,348.452 70.003 M256.027 70.278 C 256.012 70.568,255.957 70.943,255.904 71.111 C 255.814 71.399,255.819 71.400,255.998 71.121 C 256.102 70.959,256.157 70.584,256.120 70.288 L 256.053 69.750 256.027 70.278 M235.321 70.439 C 234.935 70.857,234.934 70.867,235.288 70.650 C 235.493 70.526,235.697 70.328,235.742 70.212 C 235.861 69.901,235.772 69.949,235.321 70.439 M236.205 70.667 C 236.205 70.987,236.240 71.119,236.282 70.958 C 236.323 70.798,236.323 70.535,236.282 70.375 C 236.240 70.215,236.205 70.346,236.205 70.667 M208.667 71.310 C 208.667 71.389,208.854 71.418,209.083 71.374 C 209.313 71.330,209.500 71.266,209.500 71.231 C 209.500 71.195,209.313 71.167,209.083 71.167 C 208.854 71.167,208.667 71.231,208.667 71.310 M229.928 71.324 C 230.107 71.500,231.135 71.770,230.981 71.602 C 230.925 71.540,230.630 71.418,230.326 71.331 C 230.006 71.240,229.838 71.237,229.928 71.324 M205.776 71.542 C 205.818 71.610,206.182 71.667,206.583 71.667 C 206.985 71.667,207.348 71.610,207.391 71.542 C 207.433 71.473,207.070 71.417,206.583 71.417 C 206.097 71.417,205.733 71.473,205.776 71.542 " stroke="none" fill="#0474a4" fill-rule="evenodd"></path><path id="path3" d="M12.737 3.417 C 12.737 5.342,12.762 6.106,12.791 5.116 C 12.821 4.126,12.821 2.551,12.791 1.616 C 12.761 0.681,12.737 1.492,12.737 3.417 M0.548 9.917 C 0.549 10.375,0.581 10.543,0.620 10.289 C 0.658 10.036,0.657 9.661,0.617 9.456 C 0.578 9.251,0.546 9.458,0.548 9.917 M12.745 21.500 C 12.745 27.688,12.766 30.219,12.792 27.125 C 12.817 24.031,12.817 18.969,12.792 15.875 C 12.766 12.781,12.745 15.313,12.745 21.500 M0.550 11.667 C 0.550 12.171,0.581 12.377,0.619 12.125 C 0.658 11.873,0.658 11.460,0.619 11.208 C 0.581 10.956,0.550 11.162,0.550 11.667 M0.385 26.417 C 0.386 26.967,0.417 27.172,0.454 26.872 C 0.491 26.572,0.490 26.122,0.452 25.872 C 0.414 25.622,0.384 25.867,0.385 26.417 M0.217 42.500 C 0.217 43.004,0.248 43.210,0.286 42.958 C 0.324 42.706,0.324 42.294,0.286 42.042 C 0.248 41.790,0.217 41.996,0.217 42.500 " stroke="none" fill="#047cac" fill-rule="evenodd"></path><path id="path4" d="M0.381 24.417 C 0.382 24.875,0.415 25.043,0.453 24.789 C 0.491 24.536,0.490 24.161,0.451 23.956 C 0.411 23.751,0.380 23.958,0.381 24.417 M0.214 38.917 C 0.216 39.375,0.248 39.543,0.286 39.289 C 0.325 39.036,0.324 38.661,0.284 38.456 C 0.244 38.251,0.213 38.458,0.214 38.917 M0.217 40.667 C 0.217 41.171,0.248 41.377,0.286 41.125 C 0.324 40.873,0.324 40.460,0.286 40.208 C 0.248 39.956,0.217 40.162,0.217 40.667 " stroke="none" fill="#047ca4" fill-rule="evenodd"></path></g></svg>